<svg width="12" height="12" viewBox="0 0 12 12" fill="none" xmlns="http://www.w3.org/2000/svg">
<path fill-rule="evenodd" clip-rule="evenodd" d="M6 12C9.31371 12 12 9.31371 12 6C12 2.68629 9.31371 0 6 0C2.68629 0 0 2.68629 0 6C0 9.31371 2.68629 12 6 12ZM6.125 3.375C6.125 3.09886 5.90114 2.875 5.625 2.875C5.34886 2.875 5.125 3.09886 5.125 3.375V6.375C5.125 6.65114 5.34886 6.875 5.625 6.875H7.875C8.15114 6.875 8.375 6.65114 8.375 6.375C8.375 6.09886 8.15114 5.875 7.875 5.875H6.125V3.375Z" fill="#7E8593"/>
</svg>
