<svg width="12" height="12" viewBox="0 0 12 12" fill="none" xmlns="http://www.w3.org/2000/svg">
<path d="M0.290915 3.46934L5.75039 5.94595C5.90977 6.01837 6.09 6.01837 6.24937 5.94595L11.7088 3.46934C12.0967 3.29333 12.0967 2.70717 11.7088 2.53115L6.24961 0.0543148C6.1713 0.0185241 6.08621 0 6.00012 0C5.91402 0 5.82893 0.0185241 5.75063 0.0543148L0.290915 2.53092C-0.0969717 2.70693 -0.0969717 3.29333 0.290915 3.46934ZM11.7091 5.53838L10.3476 4.92128L6.55921 6.63852C6.38203 6.71891 6.19383 6.75969 6 6.75969C5.80617 6.75969 5.61821 6.71891 5.44079 6.63852L1.65262 4.92128L0.290915 5.53838C-0.0969717 5.71415 -0.0969717 6.30008 0.290915 6.47586L5.75039 8.95059C5.90977 9.02278 6.09 9.02278 6.24937 8.95059L11.7091 6.47586C12.097 6.30008 12.097 5.71415 11.7091 5.53838ZM11.7091 8.53364L10.3528 7.91889L6.55921 9.63847C6.38203 9.71886 6.19383 9.75964 6 9.75964C5.80617 9.75964 5.61821 9.71886 5.44079 9.63847L1.64746 7.91889L0.290915 8.53364C-0.0969717 8.70942 -0.0969717 9.29535 0.290915 9.47113L5.75039 11.9459C5.90977 12.018 6.09 12.018 6.24937 11.9459L11.7091 9.47113C12.097 9.29535 12.097 8.70942 11.7091 8.53364Z" fill="#7E8593"/>
</svg>
