<svg viewBox="0 0 60 60" fill="none" xmlns="http://www.w3.org/2000/svg">
<path d="M42.4155 51.5226V9.33666C42.4155 7.74227 42.9186 6.26541 43.7747 5.05615H17.1606C11.7785 5.05615 7.41553 9.41918 7.41553 14.8012V51.0588C7.41553 52.8302 9.41415 53.864 10.8599 52.8404L15.4286 49.6058C16.2271 49.0405 17.3042 49.0755 18.0643 49.6914L23.6331 54.2036C24.4127 54.8353 25.5225 54.8542 26.3232 54.2494L32.4198 49.6441C33.1986 49.0558 34.2734 49.056 35.052 49.6446L39.0055 52.6334C40.2657 53.5862 42.0047 52.9162 42.4155 51.5226Z" fill="#F0F0F0"/>
<path d="M46.1265 9.33666V30.1676H50.9098C52.2554 30.1676 53.3461 29.0768 53.3461 27.7313V9.33666C53.3461 5.25862 46.1265 5.25862 46.1265 9.33666Z" fill="#F0F0F0"/>
<path d="M15.9805 20.0376H31.1709" stroke="white" stroke-width="4.46331" stroke-linecap="round"/>
<path d="M15.9805 30.0488H31.1709" stroke="white" stroke-width="4.46331" stroke-linecap="round"/>
</svg>
