<svg width="40" height="40" viewBox="0 0 40 40" fill="none" xmlns="http://www.w3.org/2000/svg">
<path fill-rule="evenodd" clip-rule="evenodd" d="M19.4169 9.81644C15.4595 9.81644 12.2078 13.0681 12.2078 17.0254V21.1124C12.2078 21.4386 12.2885 21.784 12.4043 22.2477C12.4973 22.5825 12.3757 22.9431 12.0984 23.1531C12.0532 23.1875 12.0041 23.2176 11.9516 23.2427C11.8391 23.299 11.7518 23.343 11.6796 23.3844C11.6437 23.4048 11.6205 23.4197 11.6068 23.4292L11.6056 23.43C11.3541 23.69 11.1862 24.1278 11.1862 24.6318C11.1862 25.5239 11.9403 26.2779 12.8323 26.2779H25.888C26.4002 26.2779 26.8441 26.1045 27.1024 25.8462C27.3606 25.5879 27.5341 25.1439 27.5341 24.6318C27.5341 24.0316 27.2464 23.5247 26.7294 23.2227C26.5796 23.1413 26.4604 23.0177 26.3833 22.8713C26.3063 22.7253 26.2713 22.5566 26.29 22.3845C26.2946 22.3406 26.3027 22.2968 26.3144 22.2534C26.3603 22.0734 26.4288 21.8675 26.4822 21.7068H26.4823C26.5037 21.6422 26.5227 21.5849 26.5369 21.5396C26.6016 21.3326 26.6259 21.2062 26.6259 21.1124V17.0254C26.6259 15.1069 25.8164 13.2765 24.4911 11.9511C23.161 10.621 21.4426 9.81644 19.4169 9.81644ZM28.1315 22.1445C28.1413 22.114 28.1516 22.0818 28.1623 22.0476C28.2395 21.8005 28.3288 21.4728 28.3288 21.1124V17.0254C28.3288 14.63 27.3217 12.3734 25.6953 10.747C24.0737 9.12543 21.9322 8.11353 19.4169 8.11353C14.519 8.11353 10.5049 12.1276 10.5049 17.0254V21.1124C10.5049 21.4369 10.5504 21.7552 10.6095 22.0488C10.5437 22.0962 10.4761 22.151 10.4138 22.2133C9.76391 22.8631 9.48328 23.7816 9.48328 24.6318C9.48328 26.4644 10.9998 27.9809 12.8323 27.9809H15.9244C16.2656 29.4655 17.6103 30.592 19.1898 30.592C20.7693 30.592 22.1141 29.4655 22.4553 27.9809H25.888C26.7382 27.9809 27.6566 27.7002 28.3065 27.0503C28.9565 26.4004 29.2371 25.482 29.2371 24.6318C29.2371 23.6586 28.8397 22.7708 28.1315 22.1445ZM20.6548 27.9809H17.7249C18.0009 28.5144 18.561 28.8891 19.1898 28.8891C19.8187 28.8891 20.3789 28.5144 20.6548 27.9809Z" fill="#0C1F34"/>
<circle cx="25.0367" cy="11.4058" r="3.40583" fill="currentColor"/>
</svg>
