<svg width="40" height="40" viewBox="0 0 40 40" fill="none" xmlns="http://www.w3.org/2000/svg">
<path fill-rule="evenodd" clip-rule="evenodd" d="M13.0918 9.0864C10.5363 9.60003 8.57193 11.8351 8.08965 14.7779C7.96851 15.517 7.97046 16.852 8.09355 17.4884C8.63603 20.2931 10.5809 23.2038 14.0129 26.3471C15.1736 27.4102 17.5854 29.3176 18.2134 29.6692C19.0012 30.1103 19.9988 30.1103 20.7866 29.6692C21.4146 29.3176 23.8264 27.4102 24.987 26.3471C28.4191 23.2038 30.364 20.2931 30.9065 17.4884C31.0295 16.852 31.0315 15.517 30.9104 14.7779C30.3517 11.3694 27.8627 9 24.8408 9C23.1101 9 21.5041 9.79745 20.1821 11.3132C19.9345 11.5972 19.6797 11.9052 19.6159 11.9978L19.5 12.1661L19.3843 11.9978C19.1169 11.6087 18.2489 10.679 17.8752 10.3813C16.6998 9.44502 15.467 8.99417 14.1128 9.00525C13.759 9.00817 13.2996 9.04469 13.0918 9.0864Z" stroke="#0C1F34" stroke-width="1.5" stroke-linecap="round" stroke-linejoin="round"/>
<circle cx="29.376" cy="11.48" r="3.62401" fill="currentColor"/>
</svg>
