<svg width="40" height="40" viewBox="0 0 40 40" fill="none" xmlns="http://www.w3.org/2000/svg">
<path d="M9.75 19.9999C9.75 24.172 10.2601 26.3653 11.6099 27.6026C12.2845 28.221 13.2332 28.6602 14.6094 28.9405C15.9908 29.2219 17.7509 29.3333 20 29.3333C22.2491 29.3333 24.0092 29.2219 25.3906 28.9405C26.7668 28.6602 27.7155 28.221 28.3901 27.6026C29.7399 26.3653 30.25 24.172 30.25 19.9999C30.25 15.8278 29.7399 13.6345 28.3901 12.3973C27.7155 11.7788 26.7668 11.3397 25.3906 11.0593C24.0092 10.7779 22.2491 10.6666 20 10.6666C17.0282 10.6666 14.9249 10.862 13.4265 11.3738C11.9814 11.8674 11.1167 12.6476 10.5735 13.8848C9.98086 15.2345 9.75 17.1737 9.75 19.9999Z" stroke="#0C1F34" stroke-width="1.5" stroke-linecap="round" stroke-linejoin="round"/>
</svg>
