<svg viewBox="0 0 60 60" fill="none" xmlns="http://www.w3.org/2000/svg">
<g clip-path="url(#clip0_3143_234484)">
<path d="M37.9586 56.6456C43.4124 56.6456 48.4771 55.7034 52.2784 54.0743C54.1743 53.2618 55.8798 52.2254 57.1502 50.9382C58.432 49.6394 59.3968 47.9427 59.3968 45.9265C59.3968 43.9103 58.432 42.2137 57.1502 40.9149C55.8798 39.6276 54.1743 38.5913 52.2784 37.7788C48.4771 36.1496 43.4124 35.2074 37.9586 35.2074C32.5048 35.2074 27.4401 36.1496 23.6388 37.7788C21.7429 38.5913 20.0374 39.6276 18.767 40.9149C17.4852 42.2137 16.5204 43.9103 16.5204 45.9265C16.5204 47.9427 17.4852 49.6394 18.767 50.9382C20.0374 52.2254 21.7429 53.2618 23.6388 54.0743C27.4401 55.7034 32.5048 56.6456 37.9586 56.6456Z" fill="#F0F0F0" stroke="white" stroke-width="5.35955"/>
<path d="M37.9586 45.9274C43.4124 45.9274 48.4771 44.9852 52.2784 43.356C54.1743 42.5435 55.8798 41.5072 57.1502 40.2199C58.432 38.9211 59.3968 37.2245 59.3968 35.2083C59.3968 33.1921 58.432 31.4954 57.1502 30.1966C55.8798 28.9094 54.1743 27.873 52.2784 27.0605C48.4771 25.4314 43.4124 24.4892 37.9586 24.4892C32.5048 24.4892 27.4401 25.4314 23.6388 27.0605C21.7429 27.873 20.0374 28.9094 18.767 30.1966C17.4852 31.4954 16.5204 33.1921 16.5204 35.2083C16.5204 37.2245 17.4852 38.9211 18.767 40.2199C20.0374 41.5072 21.7429 42.5435 23.6388 43.356C27.4401 44.9852 32.5048 45.9274 37.9586 45.9274Z" fill="#F0F0F0" stroke="white" stroke-width="5.35955"/>
<path d="M37.9586 35.2072C43.4124 35.2072 48.4771 34.265 52.2784 32.6358C54.1743 31.8233 55.8798 30.787 57.1502 29.4997C58.432 28.2009 59.3968 26.5043 59.3968 24.4881C59.3968 22.4719 58.432 20.7752 57.1502 19.4764C55.8798 18.1892 54.1743 17.1528 52.2784 16.3403C48.4771 14.7112 43.4124 13.769 37.9586 13.769C32.5048 13.769 27.4401 14.7112 23.6388 16.3403C21.7429 17.1528 20.0374 18.1892 18.767 19.4764C17.4852 20.7752 16.5204 22.4719 16.5204 24.4881C16.5204 26.5043 17.4852 28.2009 18.767 29.4997C20.0374 30.787 21.7429 31.8233 23.6388 32.6358C27.4401 34.265 32.5048 35.2072 37.9586 35.2072Z" fill="#F0F0F0" stroke="white" stroke-width="5.35955"/>
<path d="M37.9586 24.4889C43.4124 24.4889 48.4771 23.5467 52.2784 21.9176C54.1743 21.105 55.8798 20.0687 57.1502 18.7814C58.432 17.4826 59.3968 15.786 59.3968 13.7698C59.3968 11.7536 58.432 10.0569 57.1502 8.75816C55.8798 7.47089 54.1743 6.43456 52.2784 5.62203C48.4771 3.99289 43.4124 3.05069 37.9586 3.05069C32.5048 3.05069 27.4401 3.99289 23.6388 5.62203C21.7429 6.43456 20.0374 7.47089 18.767 8.75816C17.4852 10.0569 16.5204 11.7536 16.5204 13.7698C16.5204 15.786 17.4852 17.4826 18.767 18.7814C20.0374 20.0687 21.7429 21.105 23.6388 21.9176C27.4401 23.5467 32.5048 24.4889 37.9586 24.4889Z" fill="#F0F0F0" stroke="white" stroke-width="5.35955"/>
<circle cx="17.8603" cy="39.2275" r="17.4185" fill="#F0F0F0" stroke="white" stroke-width="5.35955"/>
</g>
<defs>
<clipPath id="clip0_3143_234484">
<rect width="60" height="60" fill="white"/>
</clipPath>
</defs>
</svg>
