<svg width="103" height="139" viewBox="0 0 103 139" fill="none" xmlns="http://www.w3.org/2000/svg">
<path d="M52.1781 73.5317C42.9982 62.9221 0.207031 65.3756 0.207031 97.4827C0.207031 129.59 34.9724 138.25 53.0042 138.25C73.9868 138.25 102.484 124.046 102.838 93.1593C103.192 62.2723 76.8981 50.7875 70.7476 48.0688C78.2226 44.4615 86.1304 38.1489 86.1304 27.3139C86.1304 16.4789 75.6391 1.16136 47.798 0.498263C19.9568 -0.164833 8.79674 14.5294 6.47555 22.5131C4.15436 30.4967 8.14104 37.4858 14.6981 37.8173C21.2551 38.1489 23.6812 34.8732 23.8779 30.9211C23.8771 29.6613 23.539 28.4252 22.8994 27.3441C22.2598 26.263 21.3427 25.3772 20.2453 24.7808C18.252 23.4547 18.7503 18.6538 21.4125 16.6248C24.0746 14.5957 30.0546 10.3253 41.5426 10.6569C53.0305 10.9884 66.7347 16.8237 66.7347 26.3723C66.7347 35.9209 57.2532 41.9152 47.7718 41.9152V56.5034C59.9154 57.8296 75.3113 69.1022 75.3113 92.9073C75.3113 116.712 57.922 121.739 49.3585 121.394C40.7951 121.049 29.0842 116.089 29.4121 98.8487C29.7399 81.6082 44.4539 76.3034 51.024 78.3458C54.6042 80.03 54.5255 75.4812 52.1912 73.5582" fill="#DE0735"/>
<path d="M47.7735 4.84375H29.7285V74.0312H47.7735V4.84375Z" fill="#DE0735"/>
</svg>
