<svg width="24" height="24" viewBox="0 0 24 24" fill="none" xmlns="http://www.w3.org/2000/svg">
<path d="M11.9986 17.7576L11.9985 18.5076L11.9986 17.7576ZM7.25824 14.0241C7.07907 13.6506 6.63107 13.4931 6.25762 13.6723C5.88416 13.8515 5.72666 14.2995 5.90583 14.6729L7.25824 14.0241ZM18.0916 14.6729C18.2707 14.2995 18.1132 13.8515 17.7398 13.6723C17.3663 13.4931 16.9183 13.6506 16.7392 14.0241L18.0916 14.6729ZM11.9986 17.0076C10.8673 17.0076 9.92682 16.7473 9.15794 16.2633C8.38907 15.7794 7.74758 15.0441 7.25824 14.0241L5.90583 14.6729C6.4976 15.9064 7.31468 16.8756 8.35894 17.5328C9.4032 18.1901 10.6305 18.5076 11.9985 18.5076L11.9986 17.0076ZM16.7392 14.0241C16.2498 15.0441 15.6083 15.7795 14.8393 16.2634C14.0704 16.7473 13.1299 17.0076 11.9986 17.0076L11.9985 18.5076C13.3667 18.5076 14.594 18.1902 15.6383 17.5329C16.6826 16.8757 17.4998 15.9065 18.0916 14.6729L16.7392 14.0241Z" fill="currentColor"/>
<path d="M16.7434 4.35C19.2987 5.93779 21 8.77022 21 12C21 16.9706 16.9706 21 12 21C7.02944 21 3 16.9706 3 12C3 7.02944 7.02944 3 12 3L13 2.99999V7.99999H10.5002" stroke="currentColor" stroke-width="1.5" stroke-linecap="round" stroke-linejoin="round"/>
</svg>
