<svg width="115" height="39" viewBox="0 0 115 39" fill="none" xmlns="http://www.w3.org/2000/svg">
<path fill-rule="evenodd" clip-rule="evenodd" d="M15.5854 0.40422C8.54442 1.93985 3.23478 6.66363 0.884376 13.4831C0.109243 15.7322 -0.0088491 16.5014 0.000489844 19.243C0.0131426 23.0602 0.581312 25.4669 2.21111 28.605C4.51542 33.0423 8.33174 36.2892 13.2904 38.0306C15.6068 38.8441 16.2602 38.9417 19.3511 38.9368C23.2406 38.9311 25.1711 38.4852 28.3888 36.8502C36.3799 32.7889 40.546 23.5652 38.3257 14.8482C37.6115 12.043 36.6275 9.92018 35.1369 7.96788C34.1482 6.67267 33.978 6.57114 33.1062 6.75522C31.0621 7.18636 24.9023 9.38089 22.8863 10.3962C17.5607 13.0785 14.6063 18.2202 15.4414 23.3525C15.7679 25.3584 16.3735 26.3858 17.4839 26.8175C18.5247 27.2224 21.1198 26.9673 22.3296 26.3415C23.221 25.8805 23.2674 25.767 23.2674 24.0509V22.2453L22.439 22.4456C21.9832 22.5559 21.3005 22.7605 20.9218 22.9L20.2332 23.1539L20.3193 20.2674L20.4055 17.3805L24.8593 15.7967C27.3088 14.9254 29.3847 14.3288 29.4724 14.4707C29.5601 14.6123 29.5351 18.1837 29.417 22.4068L29.2022 30.0852L27.8164 30.974C23.2545 33.9 17.9605 35.0292 14.4358 33.8283C12.5767 33.1947 10.3369 31.14 9.32649 29.141C7.20022 24.9336 7.60029 18.6504 10.358 12.9441C11.3395 10.9132 12.0992 9.89065 14.1864 7.79163C17.0052 4.95718 18.144 4.19735 22.5435 2.21612C25.6308 0.825411 25.6308 0.831135 22.5342 0.280092C20.2226 -0.131458 17.8454 -0.088977 15.5854 0.40422ZM54.1182 12.4371C49.9069 13.4593 47.7505 16.4468 48.034 20.8663C48.2642 24.4543 49.9316 26.6506 53.2117 27.6864C54.5704 28.1154 59.6966 27.9416 60.9998 27.4222L61.8282 27.0923V23.0175V18.9426H58.8157H55.8031V20.2984V21.6542H57.0232H58.2433L58.1529 23.3865L58.0625 25.1189L56.343 25.112C53.6603 25.1011 51.9163 23.4848 51.6551 20.7672C51.4334 18.4576 52.1986 16.7282 53.8775 15.7442C55.0672 15.0468 55.4534 14.9757 57.3913 15.0959C58.5891 15.1703 59.7893 15.3285 60.059 15.4478C60.4461 15.6189 60.5925 15.4345 60.7546 14.5708C60.8675 13.9691 61.0263 13.3033 61.1079 13.0909C61.2095 12.826 60.7157 12.5965 59.5336 12.359C57.4191 11.9342 56.1107 11.9532 54.1182 12.4371ZM65.8199 12.2159L64.2383 12.3461V20.1634V27.9811H66.0458H67.8534V24.8176V21.6542H68.7165C70.2565 21.6542 71.0006 22.5743 71.7477 25.4024L72.4289 27.9811H74.2081C75.1866 27.9811 75.9873 27.8735 75.9873 27.7422C75.9873 26.6606 74.2997 21.966 73.673 21.3044L72.9136 20.503L73.7128 19.9793C75.3661 18.8959 76.0198 15.8895 74.9555 14.265C73.8472 12.5733 70.5306 11.8294 65.8199 12.2159ZM96.0209 12.4657C95.3581 12.7001 94.3754 13.3701 93.8367 13.9546C93.0173 14.844 92.858 15.251 92.8589 16.4526C92.8607 18.7314 93.6427 19.6913 96.6179 21.0661C98.0118 21.7099 99.3024 22.5176 99.4862 22.8608C100.355 24.4853 98.621 25.5552 95.9097 25.0668C94.9767 24.899 93.994 24.6649 93.7262 24.5468C93.3391 24.3762 93.1689 24.6109 92.8977 25.6874C92.71 26.4328 92.5564 27.1007 92.5564 27.1715C92.5564 27.5093 95.5916 28.0904 97.2726 28.0745C99.9703 28.0492 101.817 27.086 102.742 25.2216C104.043 22.6014 103.04 20.4042 99.8811 18.9523C97.074 17.6619 97.0304 17.6354 96.5658 16.9355C96.2085 16.3974 96.2311 16.2245 96.7402 15.5966C97.243 14.9766 97.5594 14.8835 98.9939 14.9326C99.9119 14.9642 100.933 15.1351 101.264 15.3119C101.8 15.5984 101.9 15.5092 102.18 14.5015C102.649 12.8122 102.596 12.6715 101.368 12.3304C99.8092 11.8972 97.4603 11.9568 96.0209 12.4657ZM107.825 12.4497C105.768 13.1834 104.607 14.7199 104.607 16.7077C104.607 18.5624 105.573 19.7109 108.171 20.9443C110.945 22.2612 111.536 22.7349 111.536 23.642C111.536 25.1563 109.361 25.6742 106.552 24.8288C105.746 24.5862 105.067 24.4166 105.042 24.4522C105.018 24.4874 104.854 25.1041 104.677 25.8227L104.356 27.1293L105.459 27.59C107.246 28.3369 110.579 28.2209 112.313 27.352C114.316 26.3487 115 25.3193 115 23.3112C115 21.0748 114.332 20.2818 111.069 18.6414C108.982 17.5923 108.35 17.1286 108.274 16.5911C108.036 14.9106 110.007 14.4285 113.298 15.3625C113.56 15.4366 113.854 14.9931 114.122 14.1221C114.351 13.3765 114.541 12.7486 114.544 12.7269C114.546 12.7052 113.946 12.5356 113.21 12.3503C111.436 11.9038 109.242 11.9442 107.825 12.4497ZM79.5108 19.9474C78.2356 24.1455 77.1923 27.6704 77.1923 27.7807C77.1923 27.891 77.9807 27.9811 78.9441 27.9811H80.6959L81.2807 25.9474L81.8654 23.9138H84.1167H86.3683L86.9768 25.9456L87.5857 27.9775L89.4887 27.9793C91.161 27.9808 91.3728 27.9172 91.2348 27.4538C90.7781 25.9233 87.6218 15.8162 87.0949 14.1975L86.4822 12.3145H84.1559H81.8293L79.5108 19.9474ZM71.3314 15.4644C73.0024 17.1353 71.6585 19.2439 68.9228 19.2439H67.8534V16.9843V14.7247H69.2226C70.2749 14.7247 70.7632 14.8958 71.3314 15.4644ZM84.9765 18.1274C85.4525 19.7284 85.7709 21.1088 85.6844 21.1956C85.598 21.2821 84.7927 21.3529 83.8953 21.3529C82.7128 21.3529 82.3037 21.2492 82.4095 20.9763C82.4899 20.7693 82.8662 19.3488 83.2455 17.8201C83.6247 16.2914 83.9748 15.0802 84.023 15.1287C84.0715 15.1772 84.5005 16.5267 84.9765 18.1274Z" fill="#415164"/>
</svg>
