<svg width="86" height="47" viewBox="0 0 86 47" fill="none" xmlns="http://www.w3.org/2000/svg">
<path fill-rule="evenodd" clip-rule="evenodd" d="M41.1194 0.00671653C38.7151 0.0840499 37.2109 0.177983 35.2231 0.374905C24.0024 1.48635 13.9112 5.08268 7.43335 10.2786C6.29113 11.1948 4.8528 12.5722 4.03616 13.5319C1.71751 16.2569 0.439905 18.9968 0.0626756 22.0532C-0.0112936 22.6525 -0.0224027 24.2258 0.0433629 24.7864C0.169733 25.8635 0.373148 26.7945 0.686526 27.7302C2.02392 31.7233 5.16409 35.3885 9.92861 38.5175C11.4636 39.5256 12.8519 40.3034 14.689 41.1847C21.0007 44.2123 28.7588 46.1515 37.086 46.7831C40.3589 47.0314 44.0538 47.0681 47.3576 46.8851C57.9521 46.2983 67.7299 43.5951 74.8939 39.2723C81.1175 35.5168 84.9531 30.7817 85.8267 25.7757C85.9801 24.8963 86 24.635 86 23.4952C86 22.3608 85.9818 22.1214 85.8271 21.2195C85.1421 17.2274 82.503 13.3274 78.2408 10.0087C73.3957 6.23621 66.5569 3.29161 58.7434 1.61365C54.7533 0.756776 50.7287 0.252097 46.2979 0.0529958C45.5392 0.0189235 41.7836 -0.0146793 41.1194 0.00671653ZM46.4176 2.16454C50.1103 2.35321 53.0037 2.67193 56.1936 3.2414C62.6811 4.39963 68.6057 6.44407 73.2535 9.12837C79.2378 12.5846 82.9035 16.9471 83.6915 21.5502C83.8183 22.291 83.8456 22.6358 83.8456 23.4952C83.8456 24.565 83.7579 25.3106 83.5194 26.2688C82.1413 31.8043 76.6695 36.8289 68.2255 40.3126C56.155 45.2925 39.7033 46.2868 25.7547 42.8795C20.6753 41.6387 16.2245 39.8989 12.4239 37.6687C8.63869 35.4475 5.69596 32.7222 3.9881 29.856C2.06347 26.6261 1.6364 23.1593 2.75199 19.8217C3.49626 17.595 4.86408 15.501 6.86935 13.5184C12.8225 7.6324 23.6777 3.5063 36.1118 2.40321C36.5348 2.36569 36.9732 2.32705 37.086 2.31736C37.7286 2.26216 39.3363 2.17869 40.8972 2.1195C41.5055 2.09643 45.7648 2.13117 46.4176 2.16454ZM9.24498 22.8413V30.6048H10.8002H12.3555V27.268V23.9312H15.7566H19.1577V27.268V30.6048H20.7129H22.2682V22.8413V15.0778H20.7129H19.1577V18.2637V21.4496H15.7566H12.3555V18.2637V15.0778H10.8002H9.24498V22.8413ZM50.263 22.8413V30.6048H51.7327H53.2023L53.211 27.5696L53.2197 24.5344L55.3924 27.5612L57.5651 30.588L59.3831 30.5967C60.3831 30.6015 61.2012 30.5959 61.2012 30.5843C61.2012 30.5728 60.1321 29.1624 58.8255 27.4503C57.5189 25.7382 56.4499 24.3297 56.4499 24.3204C56.4499 24.3111 57.3959 23.208 58.5521 21.8692C59.7083 20.5303 60.6543 19.4279 60.6543 19.4194C60.6543 19.4109 59.8719 19.4039 58.9157 19.4039H57.1771L55.1984 21.8206L53.2197 24.2372L53.2111 19.6575L53.2024 15.0778H51.7327H50.263V22.8413ZM73.8484 22.8413V30.6048H75.3182H76.788V22.8413V15.0778H75.3182H73.8484V22.8413ZM29.002 19.1566C26.6682 19.4664 24.8707 21.0378 24.2692 23.294C24.1001 23.9285 24.0654 24.2291 24.0661 25.0546C24.0668 25.879 24.1 26.1659 24.2717 26.8303C24.4401 27.4821 24.7796 28.2077 25.163 28.7355C25.417 29.085 25.9696 29.6275 26.3246 29.8758C27.2928 30.5528 28.5121 30.9066 29.8767 30.9066C32.4919 30.9066 34.3559 29.7236 35.0877 27.5994L35.1846 27.3183H33.8086H32.4328L32.3325 27.5279C32.2628 27.6734 32.1484 27.8205 31.958 28.0089C31.7332 28.2314 31.6253 28.3086 31.3598 28.4368C30.6415 28.7838 29.8202 28.8484 28.9747 28.6245C28.4805 28.4936 27.9892 28.1906 27.6818 27.8269C27.3149 27.393 27.0431 26.6828 26.9963 26.036L26.9751 25.7421H31.1989H35.4227L35.4472 25.5174C35.4793 25.2236 35.4125 24.2786 35.3268 23.8127C34.8879 21.428 33.4151 19.7518 31.331 19.2651C30.6368 19.103 29.7258 19.0605 29.002 19.1566ZM42.9357 19.1367C41.8362 19.3066 40.8504 19.8786 40.2427 20.6993C40.1286 20.8534 40.0215 20.9711 40.0048 20.961C39.988 20.9508 39.9743 20.5964 39.9743 20.1732V19.4039H38.5729H37.1714V25.0043V30.6048H38.6583H40.1452V27.2755C40.1452 25.1955 40.1585 23.8396 40.1805 23.662C40.2363 23.2122 40.3433 22.8331 40.5117 22.4892C40.7937 21.9131 41.2865 21.5304 41.9227 21.3934C42.0926 21.3569 42.3404 21.3382 42.6576 21.3381C43.0791 21.338 43.1677 21.3482 43.4008 21.4237C44.2105 21.6858 44.6264 22.3051 44.7584 23.4449C44.78 23.6311 44.7935 25.0605 44.7937 27.1758L44.7939 30.6048H46.2655H47.737L47.7243 26.6895C47.7132 23.2419 47.7048 22.7298 47.6545 22.4021C47.3547 20.4519 46.4858 19.509 44.6877 19.1827C44.348 19.121 43.2273 19.0916 42.9357 19.1367ZM65.7931 19.1387C63.3884 19.4137 61.5297 21.0171 60.9248 23.3383C60.7863 23.8698 60.7499 24.1504 60.7321 24.8247C60.713 25.5434 60.742 25.9156 60.8635 26.5135C61.2889 28.6069 62.7418 30.1639 64.7578 30.6866C65.2988 30.8269 65.6689 30.8775 66.2968 30.8971C67.8056 30.9443 69.0632 30.6153 70.0566 29.9136C70.3975 29.6728 70.9097 29.1576 71.1368 28.8271C71.4081 28.4324 71.7441 27.734 71.815 27.4173L71.8371 27.3183H70.4722H69.1074L68.9959 27.5338C68.7088 28.0888 68.0622 28.533 67.3026 28.697C67.0337 28.7551 66.2386 28.7548 65.9353 28.6966C64.5783 28.4359 63.8007 27.5095 63.6454 25.9685L63.6226 25.7421H67.8639H72.1051L72.1049 25.1804C72.1045 24.538 72.07 24.1873 71.9494 23.6013C71.4725 21.2841 69.9164 19.6363 67.8153 19.2237C67.2149 19.1057 66.3861 19.0709 65.7931 19.1387ZM30.7282 21.3138C31.6478 21.6031 32.1459 22.2007 32.4065 23.3276C32.4513 23.5212 32.4881 23.7137 32.4882 23.7551L32.4885 23.8306H29.7348H26.9811L27.0045 23.6713C27.1957 22.3712 27.9347 21.5205 29.0927 21.2677C29.4602 21.1874 30.4116 21.2143 30.7282 21.3138ZM67.3826 21.3121C68.181 21.542 68.6875 22.0626 68.971 22.9444C69.0452 23.1751 69.1655 23.7049 69.1655 23.8007C69.1655 23.8179 67.9977 23.8306 66.4139 23.8306H63.6623V23.7175C63.6623 23.4973 63.8315 22.9421 64.0017 22.6039C64.3516 21.9088 64.9619 21.4431 65.7556 21.2657C66.0914 21.1906 67.0561 21.2182 67.3826 21.3121Z" fill="#415164"/>
</svg>
