<svg width="78" height="37" viewBox="0 0 78 37" fill="none" xmlns="http://www.w3.org/2000/svg">
<path fill-rule="evenodd" clip-rule="evenodd" d="M9.69437 0.137574C2.29497 0.289731 1.8717 0.382731 0.636005 2.12827L0 3.02663V18.4836C0 33.6658 0.010104 33.9538 0.563093 34.7003C0.872766 35.1183 1.46535 35.7153 1.87989 36.0274C2.61857 36.5832 2.95992 36.5964 18.5905 36.6698C36.2373 36.7532 35.646 36.8077 36.7403 34.9991C37.2526 34.1531 37.2736 33.5059 37.2744 18.5681C37.2755 3.988 37.2441 2.95922 36.7725 2.07324C35.7971 0.24048 35.3525 0.156284 26.4888 0.12932L18.5722 0.104832L18.3439 1.15315C17.9531 2.94684 18.3254 5.7949 19.1954 7.66783C19.6296 8.60306 21.1618 11.1264 22.6002 13.2754C25.6592 17.8453 26.3523 19.4786 26.3523 22.1167C26.3523 27.6854 22.3121 32.2111 16.5137 33.1369C11.687 33.9076 6.7156 31.2538 4.5031 26.7252C2.88073 23.4047 3.11722 19.171 5.10033 16.031C5.96845 14.6566 7.29317 13.4572 10.279 11.3424C11.2766 10.6359 12.5786 9.5017 13.1726 8.8218C15.0492 6.67345 16.7314 2.5 16.4728 0.633667L16.3848 0L9.69437 0.137574ZM66.2221 18.2806V36.4233L67.5192 36.6242C69.6905 36.9598 72.8369 36.8495 73.8765 36.4013C76.5519 35.2476 77.6969 32.7484 77.8979 27.623C78.1366 21.5455 77.2764 18.8116 74.7747 17.6967L73.536 17.1445L74.3282 16.6591C75.4227 15.9886 76.4842 14.6569 76.9099 13.4204C77.1286 12.785 77.2701 11.0458 77.2747 8.94232C77.2835 4.75374 76.8291 3.13586 75.2367 1.68638C73.8582 0.431708 72.7165 0.140876 69.1577 0.139225L66.2221 0.137574V18.2806ZM44.5979 14.7892L44.5122 29.1657L43.8295 30.5415L43.1468 31.9172L41.5954 31.9992C39.855 32.0911 39.9435 31.9532 39.5986 35.1128L39.4301 36.6575L40.2985 36.8324C41.6394 37.1026 44.1219 37.0372 45.3281 36.6998C46.7408 36.3047 47.9598 34.979 48.6163 33.1243C49.1057 31.7414 49.1466 30.5965 49.2304 16.0274L49.32 0.412722H47.0018H44.6837L44.5979 14.7892ZM51.8051 16.7153L51.8853 33.0178L52.568 34.3889C53.4995 36.2596 54.52 36.8074 57.3235 36.9409C61.4899 37.1395 62.9642 35.6405 63.482 30.679C63.6322 29.2414 63.757 21.8435 63.7597 14.2389L63.7644 0.412722H61.4716H59.1788L59.0616 15.4771C58.939 31.207 58.8732 32.0548 57.773 32.0548C56.5651 32.0548 56.5326 31.655 56.4373 15.6147L56.3472 0.412722H54.0359H51.7245L51.8051 16.7153ZM72.0442 5.03576C72.6545 5.7151 73.1075 9.22159 72.8828 11.5268C72.6908 13.4949 72.0764 14.5686 71.2421 14.3933C70.8989 14.3212 70.8352 13.5549 70.8423 9.5614C70.8467 6.95107 70.8535 4.75319 70.8574 4.67752C70.874 4.35119 71.6359 4.58094 72.0442 5.03576ZM72.8566 21.324C73.2779 22.1522 73.3353 22.8863 73.2662 26.5647C73.1987 30.1408 73.1045 30.9674 72.6905 31.603C72.3304 32.1563 72.0108 32.3398 71.5166 32.2776L70.8374 32.1923L70.8451 26.3454C70.8494 23.1298 70.8554 20.4284 70.8587 20.3428C70.8617 20.257 71.2025 20.2261 71.6154 20.274C72.1545 20.3365 72.5046 20.6325 72.8566 21.324Z" fill="#415164"/>
</svg>
