<svg width="78" height="49" viewBox="0 0 78 49" fill="none" xmlns="http://www.w3.org/2000/svg">
<g clip-path="url(#clip0_587_14537)">
<path fill-rule="evenodd" clip-rule="evenodd" d="M10.261 24.3752L13.2298 35.4549H8.79796L6.05188 25.2059H4.92014V35.4546H0.488281V15.5117H4.92014V23.544H6.05212L8.20419 15.5124H12.6361L10.261 24.3752ZM14.6143 15.5117H19.0462L19.0459 33.793L21.8159 33.7925L21.8162 15.5117H26.2478V32.1316C26.2478 33.9594 24.7521 35.4551 22.9243 35.4551H17.9298C16.1063 35.4551 14.6143 33.9631 14.6143 32.1399V15.5117ZM29.0178 15.5117H37.3277C39.1558 15.5117 40.6512 17.0071 40.6512 18.8353V32.1316C40.6512 33.9594 39.1556 35.4551 37.3277 35.4551H29.0178V15.5117ZM33.4494 33.793L33.4496 17.1738L36.2196 17.1736L36.2194 33.7927L33.4494 33.793ZM46.7447 15.5117H51.7311C53.559 15.5117 55.0546 17.0071 55.0546 18.8353V32.1316C55.0546 33.9594 53.559 35.4551 51.7311 35.4551H46.7447C44.9168 35.4551 43.4212 33.9597 43.4212 32.1316V18.835C43.4212 17.0071 44.9168 15.5117 46.7447 15.5117ZM47.8531 33.793L47.8533 17.1738L50.6233 17.1736L50.623 33.7927L47.8531 33.793Z" fill="#415164"/>
<path fill-rule="evenodd" clip-rule="evenodd" d="M4.09992 12.1641C4.4285 12.129 4.75902 12.1003 5.0915 12.0788L4.76 4.4877C4.20522 4.52085 3.65459 4.56863 3.10811 4.63054L4.09992 12.1641ZM2.13359 12.4644C2.45802 12.4003 2.78441 12.3416 3.11371 12.2911L2.12214 4.75851C1.57297 4.83919 1.0277 4.93352 0.488281 5.04345L2.13359 12.4644ZM8.07281 12.0788C8.40552 12.1005 8.7358 12.129 9.06438 12.1644L10.0564 4.6303C9.50996 4.5679 8.95884 4.52061 8.40431 4.48746L8.07281 12.0788ZM6.5813 12.0296C6.74802 12.0296 6.91377 12.032 7.07952 12.0357L7.41127 4.44334C7.13583 4.43603 6.85917 4.43213 6.58179 4.43213C6.3044 4.43213 6.02847 4.43578 5.75304 4.44358L6.08454 12.0357C6.2498 12.0318 6.41506 12.0296 6.5813 12.0296ZM12.6758 5.04345L11.0305 12.4647C10.706 12.4006 10.3797 12.3421 10.0501 12.2914L11.0419 4.75827C11.5916 4.83919 12.1364 4.93352 12.6758 5.04345Z" fill="#415164"/>
<path fill-rule="evenodd" clip-rule="evenodd" d="M62.9334 8.04497C63.0599 8.03424 63.1871 8.02913 63.3148 8.02888C65.8515 8.02913 67.9083 10.0861 67.9085 12.6224C67.9083 14.1816 67.1181 15.6283 65.8206 16.4724L65.0023 15.0547C65.8932 14.4483 66.479 13.4267 66.479 12.2682C66.4792 10.4081 64.9706 8.89956 63.1103 8.89956L63.0843 8.90004L62.9334 8.04497ZM60.8145 8.29067C61.0097 8.17806 61.2595 8.24509 61.3719 8.44009C61.4848 8.63533 61.4177 8.88518 61.2225 8.99779C61.0272 9.1104 60.7774 9.04361 60.6648 8.84837C60.5524 8.65312 60.6192 8.40353 60.8145 8.29067ZM67.0388 45.9478C65.1179 47.0569 63.0267 47.6041 60.9551 47.6422V46.6294C62.4768 46.5075 63.9959 46.0544 65.406 45.2405C66.2233 44.7688 66.9533 44.2041 67.5919 43.5681L68.133 44.2131C67.7179 44.5463 67.2755 44.8554 66.8068 45.1369V45.1374L67.2148 45.8443L67.0388 45.9478ZM68.5613 43.9615L69.0861 44.587L68.711 44.9017L68.1859 44.2762L68.5613 43.9615ZM70.0007 42.4617L70.6261 42.9868L70.3114 43.3619L69.686 42.8371L70.0007 42.4617ZM71.1575 40.735L71.8646 41.1433L71.6196 41.5674L70.9125 41.1591L71.1575 40.735ZM71.9972 38.8335L72.7645 39.1126L72.5971 39.5728L71.8298 39.2937L71.9972 38.8335ZM72.4937 36.815L73.2981 36.9569L73.2128 37.439L72.4087 37.2974L72.4937 36.815ZM68.1859 25.6956L68.711 25.0702L69.0861 25.3849L68.5613 26.0103L68.1859 25.6956ZM69.6857 27.135L70.3112 26.6102L70.6259 26.9853L70.0004 27.5101L69.6857 27.135ZM70.9125 28.813L71.6196 28.4047L71.8646 28.8288L71.1575 29.2371L70.9125 28.813ZM71.8298 30.6781L72.5971 30.399L72.7645 30.8592L71.9972 31.1383L71.8298 30.6781ZM72.4087 32.6744L73.2128 32.5328L73.2981 33.015L72.4937 33.1568L72.4087 32.6744ZM63.3163 29.9822L63.7246 29.2751L64.1487 29.5198L63.7404 30.2272L63.3163 29.9822ZM61.3093 28.3613L61.8867 27.7838L62.2328 28.13L61.6554 28.7074L61.3093 28.3613ZM59.7897 26.2763L60.4968 25.868L60.7418 26.2921L60.0347 26.7004L59.7897 26.2763ZM58.8618 23.869L59.6503 23.6576L59.7771 24.1305L58.9885 24.3419L58.8618 23.869ZM63.7404 12.8698L64.1487 13.5769L63.7246 13.8216L63.3163 13.1145L63.7404 12.8698ZM61.6554 14.3891L62.2328 14.9665L61.8867 15.3126L61.3093 14.7352L61.6554 14.3891ZM60.0345 16.3963L60.7413 16.8046L60.4966 17.2287L59.7895 16.8205L60.0345 16.3963ZM58.9885 18.7549L59.7771 18.9662L59.6503 19.4391L58.8618 19.2277L58.9885 18.7549ZM71.596 15.7241L72.7467 16.1428L72.5793 16.603L71.4283 16.184L71.596 15.7241ZM59.1321 5.86731L58.5198 4.80651L58.9439 4.56178L59.5565 5.62258L59.1321 5.86731ZM61.8611 4.78335L61.6486 3.57728L62.1307 3.49221L62.3435 4.69852L61.8611 4.78335ZM64.7963 4.69828L65.0091 3.49196L65.4913 3.57728L65.2787 4.78335L64.7963 4.69828ZM67.5839 5.62209L68.1962 4.56154L68.6203 4.80626L68.008 5.86706L67.5839 5.62209ZM69.8871 7.44364L70.8253 6.65633L71.1399 7.03146L70.2018 7.81877L69.8871 7.44364ZM71.4281 9.94305L72.5788 9.52404L72.7465 9.98424L71.5955 10.4033L71.4281 9.94305ZM72.6324 34.7412H73.4487V35.2309H72.6324V34.7412ZM58.5885 21.3035H59.4051V21.7932H58.5885V21.3035ZM72.0218 12.8188H73.2467V13.3085H72.0218V12.8188ZM60.2017 7.23011L59.3841 5.81417C60.161 5.36567 61.0031 5.04684 61.876 4.86671L62.3013 7.27959C62.205 7.30056 62.1095 7.32444 62.0147 7.35004C62.1792 7.47679 62.3225 7.63669 62.4327 7.82754C62.8836 8.60852 62.616 9.60741 61.835 10.0583C61.2593 10.3908 60.5653 10.3326 60.0593 9.96596C59.4531 11.0263 58.5734 11.9155 57.5036 12.5329C56.6656 13.0167 55.7415 13.3163 54.7933 13.4209L54.3414 12.6382H54.3417L54.31 12.5834L55.0171 12.1753L55.2219 12.53C57.1017 12.16 58.6726 10.9302 59.5087 9.26689C59.2003 8.5215 59.4841 7.64449 60.2017 7.23011ZM60.6102 7.93699C61.0007 7.71152 61.5001 7.84534 61.7256 8.23558C61.9511 8.62607 61.8172 9.12576 61.4268 9.35122C61.0363 9.57669 60.5366 9.44287 60.3111 9.05239C60.0856 8.6619 60.2197 8.16221 60.6102 7.93699ZM56.6502 15.0033L55.9434 15.4116L55.9114 15.3565L55.9109 15.357L55.4593 14.5745C56.024 13.8055 56.7455 13.1552 57.5835 12.6713C58.5668 12.1034 59.6686 11.7899 60.7889 11.7468C61.0597 10.6892 62.0195 9.90698 63.1615 9.90698C64.5143 9.90698 65.6112 11.0039 65.6112 12.3564C65.6112 13.1493 65.2278 13.8877 64.5923 14.3449L64.1804 13.6317C64.5546 13.3324 64.7946 12.8724 64.7946 12.3564C64.7946 11.4548 64.0631 10.7235 63.1615 10.7235C62.4685 10.7235 61.8757 11.1562 61.6388 11.7661H61.6391C61.6354 11.7758 61.6317 11.7853 61.6281 11.7951C61.5742 11.9391 61.5425 12.0934 61.5323 12.2462C61.5299 12.2828 61.5286 12.3194 61.5286 12.3564C61.5286 12.431 61.534 12.5046 61.5437 12.5768C59.6425 12.4259 57.7352 13.1723 56.4455 14.6484L56.6502 15.0033ZM62.3581 4.78164C62.7581 4.72314 63.1632 4.69316 63.5698 4.69316C63.9815 4.69316 64.3861 4.72363 64.782 4.78091L64.3564 7.19526C64.099 7.16113 63.837 7.14285 63.57 7.14285C63.3034 7.14285 63.0411 7.1604 62.7837 7.19477L62.3581 4.78164ZM65.2641 4.86525C66.0719 5.03149 66.837 5.31399 67.5417 5.69473L66.3156 7.81804C65.8554 7.57673 65.3599 7.39416 64.8383 7.28008L65.2641 4.86525ZM67.9653 5.94019C68.6573 6.36821 69.2823 6.89423 69.821 7.49872L67.9439 9.07408C67.59 8.68628 67.1851 8.34576 66.74 8.06301L67.9653 5.94019ZM70.1359 7.87361C70.6364 8.50541 71.0471 9.21131 71.3498 9.97157L69.0456 10.8101C68.8436 10.3199 68.5779 9.86286 68.2586 9.44897L70.1359 7.87361ZM71.517 10.4318C71.7669 11.1857 71.9119 11.9871 71.9363 12.8188H69.4849C69.4629 12.2811 69.3696 11.7619 69.2133 11.2703L71.517 10.4318ZM71.9363 13.3085C71.9119 14.1309 71.7676 14.9333 71.5153 15.6948L69.2131 14.8568C69.3693 14.3654 69.4629 13.846 69.4849 13.3083H71.9363V13.3085ZM71.3476 16.155C71.0044 17.0179 70.5198 17.8191 69.9131 18.5243C69.2948 18.212 68.5962 18.0363 67.8561 18.0363C67.4023 18.0363 66.964 18.1026 66.5501 18.2257L66.5301 18.1913C67.655 17.5402 68.5455 16.5297 69.0454 15.317L71.3476 16.155ZM66.1891 0.262762L65.482 3.45248C65.3426 3.42493 65.2022 3.39983 65.0608 3.37813L65.4871 0.1404C65.7231 0.175012 65.9573 0.215719 66.1891 0.262762ZM63.5698 3.26528C63.6415 3.26528 63.7126 3.26649 63.7841 3.26796L63.9266 0.00463125C63.8082 0.00170625 63.6892 0 63.57 0C63.4509 0 63.3321 0.0014625 63.2139 0.004875L63.3565 3.26796C63.4272 3.26649 63.4984 3.26528 63.5698 3.26528ZM64.2109 3.28673C64.3537 3.29599 64.4958 3.30842 64.6369 3.32353L65.0633 0.0853125C64.8283 0.0585 64.5916 0.0382687 64.3532 0.0241312L64.2109 3.28673ZM61.6581 3.45248C61.7975 3.42493 61.9379 3.39958 62.0793 3.37813L61.653 0.1404C61.417 0.175012 61.1825 0.215719 60.9507 0.263006L61.6581 3.45248ZM62.5031 3.32353C62.6445 3.30842 62.7864 3.29599 62.9295 3.28673L62.7869 0.0241312C62.5485 0.0382687 62.3118 0.0589875 62.0771 0.0855563L62.5031 3.32353ZM66.8417 24.8557C67.2926 25.1287 67.7235 25.4312 68.1323 25.7602L66.5662 27.6266C66.2606 27.3921 65.9437 27.1757 65.6171 26.9773L66.8417 24.8557ZM68.5072 26.0747C68.9028 26.421 69.275 26.793 69.6211 27.1889L67.7889 28.7264C67.5212 28.4449 67.2402 28.1807 66.9474 27.9335L68.5072 26.0747ZM69.9361 27.564C70.2649 27.9725 70.5671 28.4037 70.8401 28.8546L68.8331 30.0134C68.6098 29.6895 68.3712 29.3811 68.1184 29.0896L69.9361 27.564ZM71.0844 29.279C71.3415 29.7458 71.5641 30.2226 71.7522 30.7064L69.6738 31.463C69.5565 31.2188 69.4293 30.9775 69.2918 30.7388C69.2304 30.6323 69.167 30.5273 69.1024 30.4237L71.0844 29.279ZM71.9195 31.1666C72.0911 31.6687 72.2276 32.177 72.3285 32.6888L70.2832 33.0496C70.1701 32.6659 70.0343 32.2857 69.8754 31.911L71.9195 31.1666ZM72.4133 33.171C72.494 33.6933 72.5391 34.2179 72.5495 34.7412H70.6354C70.5852 34.3339 70.5103 33.9273 70.4116 33.5242L72.4133 33.171ZM72.5495 35.2309C72.5381 35.7576 72.491 36.2822 72.4101 36.8006L70.7044 36.4999C70.7229 36.0782 70.7163 35.6548 70.6841 35.2311H72.5495V35.2309ZM72.3251 37.2825C72.2227 37.7983 72.0864 38.3065 71.9173 38.8043L70.4755 38.2795C70.5669 37.8551 70.6325 37.4244 70.6715 36.991L72.3251 37.2825ZM71.7498 39.2645C71.5607 39.7539 71.3391 40.2317 71.0856 40.6936L69.9373 40.0306C70.1047 39.6157 70.2464 39.1909 70.3604 38.7589L71.7498 39.2645ZM70.8409 41.1177C70.5703 41.5657 70.269 41.9974 69.9378 42.4093L69.0871 41.6954C69.3321 41.3047 69.5509 40.8998 69.742 40.4832L70.8409 41.1177ZM69.6233 42.7847C69.2799 43.1771 68.9077 43.5496 68.5079 43.8984L67.9327 43.213C68.2532 42.8625 68.5479 42.4927 68.8153 42.1071L69.6233 42.7847ZM65.0038 28.0391C66.3983 28.8917 67.5612 30.0831 68.38 31.5013C71.0856 36.1871 69.479 42.1822 64.7929 44.8875C61.6525 46.7006 57.9248 46.577 54.9932 44.8883L55.4015 44.1809C58.0891 45.729 61.506 45.8421 64.3844 44.1802C68.6803 41.7 70.1528 36.2054 67.6726 31.9096C66.8982 30.5682 65.8294 29.5025 64.5953 28.7462L65.0038 28.0391ZM65.4216 22.3358C65.8145 21.6838 66.5294 21.2472 67.346 21.2474C68.5857 21.2474 69.5916 22.2529 69.5916 23.4931H68.7751L68.7748 23.4929C68.7751 22.7041 68.1347 22.0638 67.3457 22.064C66.5567 22.064 65.9166 22.7039 65.9166 23.4931C65.9166 23.9336 66.1165 24.3272 66.4297 24.5893L66.4256 24.5966L66.0175 25.3032L65.6068 26.0152C64.4673 25.2632 63.7736 23.9848 63.7736 22.6085C63.7736 21.1853 64.5024 19.9322 65.6066 19.2017L66.4258 20.6203C65.8781 21.0147 65.5003 21.6299 65.4216 22.3358ZM66.0309 18.9559C66.5804 18.6808 67.2005 18.5257 67.8564 18.5257C68.5128 18.5257 69.1329 18.681 69.6823 18.9564L68.8633 20.3751C68.5562 20.2364 68.2154 20.1591 67.8564 20.1591C67.4978 20.1591 67.1571 20.2361 66.8499 20.3748L66.0309 18.9559ZM70.106 19.2017C70.3668 19.3745 70.6064 19.5756 70.8206 19.8018L69.5661 20.8548C69.479 20.7699 69.3857 20.6919 69.287 20.6205L70.106 19.2017ZM71.1356 20.1767C71.3203 20.4255 71.4778 20.6966 71.6028 20.9844L70.0633 21.5448C70.0102 21.4346 69.949 21.3293 69.8807 21.2294L71.1356 20.1767ZM71.7703 21.4446C71.8578 21.7386 71.9129 22.0465 71.9316 22.3638H70.2939C70.2817 22.2412 70.2605 22.1213 70.2308 22.0048L71.7703 21.4446ZM63.7672 29.2013C63.2325 28.8729 62.7393 28.4929 62.293 28.0698L64.6043 25.7588C64.8509 25.9852 65.1176 26.1907 65.4013 26.3716L63.7672 29.2013ZM61.9469 27.7236C61.5186 27.2712 61.1401 26.7769 60.8159 26.2492L63.6456 24.6156C63.8265 24.8993 64.0317 25.166 64.2582 25.4126L61.9469 27.7236ZM60.5709 25.8253C60.2763 25.2808 60.0376 24.7055 59.8599 24.1083L63.0148 23.263C63.1162 23.586 63.2456 23.8965 63.3999 24.1919L60.5709 25.8253ZM59.7332 23.6357C59.5903 23.0375 59.5077 22.4206 59.4906 21.7932H62.7584C62.7727 22.134 62.8169 22.4672 62.8885 22.7901L59.7332 23.6357ZM59.4906 21.3035C59.5077 20.6761 59.5901 20.0592 59.7329 19.461L62.8885 20.3066C62.8169 20.6295 62.7727 20.9625 62.7584 21.3035H59.4906ZM59.8599 18.9884C60.0376 18.3912 60.2763 17.8159 60.5709 17.2714L63.4004 18.905C63.2459 19.2004 63.1164 19.5107 63.015 19.8337L59.8599 18.9884ZM60.8157 16.8475C61.1396 16.3198 61.5184 15.8257 61.9467 15.3731L64.2579 17.6846C64.0315 17.9312 63.8262 18.1979 63.6454 18.4816L60.8157 16.8475ZM62.2928 15.0267C62.7391 14.6038 63.2322 14.2238 63.767 13.8952L65.4013 16.7259C65.1179 16.9067 64.8512 17.1117 64.6045 17.3384L62.2928 15.0267ZM58.9117 46.5955C59.4258 46.6538 59.9452 46.6747 60.4656 46.6574C60.4656 46.9855 60.4656 47.3141 60.4656 47.6422C59.8911 47.6305 59.3193 47.579 58.754 47.4903C58.8064 47.192 58.8596 46.8936 58.9117 46.5955ZM58.2719 47.4055C57.7096 47.2948 57.1548 47.1461 56.6122 46.9609L56.8757 46.2374H56.8755L56.9008 46.1684C57.3995 46.3259 57.9094 46.4466 58.4262 46.5292C58.3777 46.8205 58.3233 47.113 58.2719 47.4055ZM56.1522 46.7932C55.6184 46.5875 55.0978 46.3459 54.5942 46.069L55.0025 45.3619C55.4607 45.6146 55.9377 45.8377 56.4304 46.0288L56.1522 46.7932ZM54.1701 45.8243C53.6811 45.5298 53.2104 45.2015 52.7614 44.8395L53.2887 44.2114C53.6972 44.5407 54.1279 44.8429 54.5786 45.1164L54.1701 45.8243ZM52.3863 44.5253C51.3623 43.6322 50.4658 42.557 49.7485 41.3149C49.5644 40.9963 49.3948 40.668 49.2383 40.3353L49.9776 39.9906C50.6781 41.4899 51.6836 42.8183 52.914 43.8962L52.3863 44.5253ZM64.8441 29.8555C66.817 31.3536 68.0916 33.7243 68.0916 36.3919C68.0916 39.1019 66.7766 41.5045 64.75 42.9982V30.019L64.8441 29.8555ZM66.9128 0H78.0456V48.75H64.75V47.7986C65.6624 47.5096 66.5577 47.1196 67.4206 46.6213C67.4732 46.5909 67.5246 46.5594 67.5766 46.5285C68.0117 46.2764 68.0823 45.8055 67.8466 45.3911C67.9027 45.3529 67.9578 45.3136 68.0129 45.2746L68.117 45.3984C68.3914 45.7258 68.8801 45.7699 69.2075 45.4952L69.5826 45.1805C69.91 44.9063 69.9543 44.4173 69.6796 44.09L69.5751 43.9657C69.6136 43.9277 69.6516 43.8891 69.6894 43.8509L69.8142 43.9554C70.1415 44.2299 70.63 44.1858 70.9047 43.8584L71.2197 43.4833C71.4941 43.1562 71.45 42.6675 71.1226 42.3928L70.9983 42.2884C71.0295 42.2443 71.0607 42.2 71.0912 42.1556L71.2316 42.2365C71.6011 42.45 72.0767 42.3252 72.289 41.9547L72.5325 41.5299C72.7424 41.1623 72.6171 40.6858 72.249 40.4732L72.1062 40.3908C72.1293 40.3414 72.1532 40.2921 72.1759 40.2424L72.3329 40.2997C72.7338 40.4457 73.1777 40.2373 73.3237 39.8361L73.4912 39.3759C73.6369 38.9747 73.429 38.531 73.0275 38.385L72.8759 38.3299C72.8906 38.278 72.9052 38.2261 72.9193 38.1739L73.0792 38.202C73.5004 38.2761 73.9019 37.9931 73.976 37.5719L74.061 37.0897C74.1354 36.6685 73.8521 36.2671 73.4309 36.193L73.2676 36.1642C73.2728 36.1116 73.2776 36.0587 73.2823 36.0058H73.4485C73.8765 36.0058 74.2241 35.6584 74.2241 35.2302V34.7405C74.2241 34.3124 73.8768 33.9649 73.4485 33.9649H73.281C73.2767 33.912 73.2723 33.8593 73.2671 33.8067L73.4309 33.7777C73.8521 33.7033 74.1354 33.3021 74.061 32.8809L73.976 32.3988C73.9016 31.9776 73.5004 31.6943 73.0792 31.7687L72.9176 31.7969C72.904 31.7448 72.8893 31.6931 72.875 31.6409L73.0275 31.5854C73.429 31.4398 73.6367 30.9962 73.4912 30.5945L73.3237 30.1343C73.1782 29.7329 72.7346 29.5252 72.3329 29.6707L72.172 29.7292L72.1057 29.5813L72.2519 29.4972C72.6219 29.2846 72.7472 28.8095 72.5337 28.4398L72.2887 28.0156C72.0752 27.6461 71.6009 27.5196 71.2313 27.7339L71.0902 27.8155C71.0597 27.7709 71.0283 27.7268 70.9971 27.6827L71.1219 27.5779C71.449 27.3034 71.4934 26.8147 71.2189 26.4871L70.904 26.112C70.6295 25.7849 70.1408 25.7402 69.8135 26.0149L69.6835 26.1239C69.6458 26.0861 69.6075 26.0481 69.5697 26.0103L69.6789 25.8802C69.9534 25.5528 69.9095 25.0641 69.5819 24.7896L69.2068 24.4749C68.8794 24.2007 68.3909 24.2446 68.1162 24.572L68.008 24.7009C67.6867 24.4732 67.356 24.2617 67.0169 24.0662C66.9106 23.9857 66.8097 23.898 66.7522 23.7739C66.4412 23.1241 67.2982 22.5201 67.8074 23.0293C67.9317 23.1536 67.9987 23.3157 67.9987 23.4904C67.9987 23.9194 68.3468 24.2668 68.7743 24.2668H69.5909C70.0177 24.2668 70.3636 23.9148 70.3636 23.4895C70.3634 23.3703 70.3556 23.2516 70.3417 23.136H71.9309C72.3699 23.136 72.7831 22.7511 72.7065 22.317C72.6227 20.8911 71.8987 19.5605 70.7602 18.7098C71.1368 18.234 71.5007 17.6887 71.7756 17.1325L72.3148 17.3287C72.7158 17.4749 73.1597 17.2663 73.3057 16.8651L73.4731 16.4049C73.6189 16.0039 73.411 15.56 73.0095 15.414L72.4547 15.2122C72.5449 14.84 72.6124 14.4624 72.6551 14.0822H73.2457C73.6737 14.0822 74.0213 13.7348 74.0213 13.3066V12.8188C74.0213 12.3908 73.674 12.0432 73.2457 12.0432H72.6534C72.61 11.6656 72.5415 11.2822 72.4533 10.9137L73.0093 10.7114C73.4102 10.5653 73.6189 10.1217 73.4729 9.72051L73.3054 9.26031C73.1594 8.85934 72.7158 8.65069 72.3146 8.79669L71.7598 8.99876C71.5897 8.65605 71.3969 8.32187 71.1848 8.00329L71.6357 7.62499C71.9628 7.35052 72.0074 6.86181 71.7327 6.53445L71.4181 6.15932C71.1434 5.83196 70.6549 5.7876 70.3275 6.06231L69.8759 6.44134C69.5953 6.17321 69.3008 5.92605 68.9947 5.70009L69.2887 5.19066C69.5017 4.82162 69.3725 4.35045 69.004 4.13644L68.583 3.89147C68.2137 3.67697 67.7391 3.80348 67.5256 4.17324L67.2321 4.68171C66.8794 4.5279 66.5184 4.39676 66.1516 4.28903L66.2537 3.71012C66.2662 3.63919 66.2684 3.56923 66.2615 3.50074L66.9384 0.4485C66.974 0.293963 66.9623 0.138938 66.9128 0Z" fill="#415164"/>
</g>
<defs>
<clipPath id="clip0_587_14537">
<rect width="78" height="48.75" fill="white"/>
</clipPath>
</defs>
</svg>
