<svg width="136" height="39" viewBox="0 0 136 39" fill="none" xmlns="http://www.w3.org/2000/svg">
<path fill-rule="evenodd" clip-rule="evenodd" d="M9.5894 9.64355L0.0566406 19.1767L9.6445 28.7651L19.2324 38.3534L28.7933 28.7928L38.3543 19.2323L28.7938 9.67132C23.5355 4.41274 19.2082 0.110352 19.1777 0.110352C19.1472 0.110352 14.8324 4.40029 9.5894 9.64355ZM10.6659 10.1999C11.193 10.4201 11.5397 10.7487 11.8184 11.2923C12.0022 11.6509 12.0311 11.86 11.9804 12.4647L11.9187 13.2008L12.2602 13.2691C13.1042 13.4379 13.7774 14.3477 13.7774 15.3194C13.7774 16.8738 12.2893 17.8927 10.8344 17.3345C10.6875 17.278 10.6695 17.3632 10.7105 17.9196C10.8083 19.2496 11.7281 20.5529 12.9843 21.1418C13.5188 21.3924 13.7593 21.4361 14.604 21.4361C15.4477 21.4361 15.6893 21.3923 16.2213 21.1429C17.5438 20.5229 18.444 19.276 18.5892 17.8633C18.6578 17.1962 18.6499 17.1609 18.4514 17.2442C17.5206 17.6348 16.6941 17.5349 16.0297 16.9515C15.4877 16.4758 15.2847 16.0309 15.2847 15.3194C15.2847 14.9771 15.362 14.5644 15.4622 14.3714C15.712 13.8904 16.3524 13.3587 16.7783 13.2788L17.1388 13.2113V12.3015C17.1388 11.1674 17.3885 10.7231 18.2703 10.288C19.9958 9.43669 21.7756 11.0145 21.2421 12.9223C21.1671 13.1903 21.1869 13.2254 21.4133 13.2254C21.8312 13.2254 22.6435 13.8133 22.8777 14.2851C23.1861 14.9064 23.1643 15.9108 22.831 16.4503C22.3307 17.2596 21.1786 17.6826 20.3161 17.3736C19.7534 17.172 19.7165 17.2326 19.8567 18.1266C20.0635 19.4452 20.9152 20.5712 22.1402 21.1457C22.6659 21.3922 22.9099 21.4361 23.7537 21.4361C24.6546 21.4361 24.8169 21.4021 25.4824 21.0745C26.7505 20.4502 27.5339 19.3286 27.7289 17.8576L27.8041 17.2915L27.486 17.38C25.6818 17.8821 24.061 16.2193 24.7492 14.5719C25.0471 13.8587 25.7989 13.2254 26.3477 13.2254C26.5264 13.2254 26.5675 13.1788 26.5133 13.0375C26.0308 11.7802 26.8572 10.2744 28.1444 10.0655L28.5456 10.0004V18.0602V26.12H19.1777H9.80982V18.0746C9.80982 10.0604 9.8107 10.0293 10.0338 10.0293C10.157 10.0293 10.4414 10.106 10.6659 10.1999ZM43.1679 12.3059C43.1269 12.3469 43.0934 12.9177 43.0934 13.5744V14.7683H44.9669H46.8405V19.8931V25.0179H48.4937H50.1468V19.8931V14.7683H52.0791H54.0115L53.9803 13.5285L53.9491 12.2886L48.5957 12.2601C45.6513 12.2443 43.2089 12.2649 43.1679 12.3059ZM54.8859 18.6228V25.0179H56.595H58.3041L58.2757 18.6532L58.2473 12.2886L56.5666 12.2582L54.8859 12.2278V18.6228ZM59.9188 12.307C59.8784 12.3473 59.8453 15.2238 59.8453 18.6992V25.0179H61.5519H63.2587L63.2878 21.7076L63.317 18.3973L65.2583 21.6801L67.1998 24.9628L69.2534 24.9928C70.383 25.0093 71.3072 24.9949 71.3072 24.9608C71.3072 24.9266 70.3495 23.3758 69.1789 21.5143C68.0084 19.6527 67.0202 18.0785 66.983 18.0159C66.9459 17.9533 67.8292 16.6665 68.946 15.1563C70.0628 13.6461 70.9766 12.3706 70.9766 12.322C70.9766 12.2733 70.1118 12.2335 69.0547 12.2335H67.133L65.2249 15.0333L63.317 17.8331L63.2875 15.0333L63.2581 12.2335H61.6252C60.7271 12.2335 59.9592 12.2666 59.9188 12.307ZM72.1889 18.6257V25.0179H73.842H75.4952V21.7051C75.4952 19.7895 75.5368 18.418 75.5936 18.4531C75.6477 18.4865 76.5528 19.9763 77.605 21.7637L79.5179 25.0136L81.5908 25.0158C83.2195 25.0175 83.6464 24.9884 83.5826 24.8801C83.5378 24.8044 82.5429 23.2146 81.3718 21.3475C80.2006 19.4803 79.2424 17.9321 79.2424 17.907C79.2424 17.882 80.1599 16.6263 81.2812 15.1166C82.4026 13.6069 83.3201 12.3394 83.3201 12.3001C83.3201 12.2606 82.4399 12.242 81.3639 12.2585L79.4077 12.2886L77.5341 15.0291L75.6605 17.7696L75.5933 15.4699C75.5564 14.2052 75.5191 12.9596 75.5106 12.7019L75.4952 12.2335H73.842H72.1889V18.6257ZM84.4444 17.006L84.4774 21.7787L84.8931 22.6196C85.7271 24.3066 87.2572 25.159 89.7123 25.3041C92.187 25.4505 94.2089 24.623 95.2061 23.0558C95.9046 21.9582 95.936 21.6877 95.9377 16.7521L95.9392 12.2886L94.2633 12.2582L92.5872 12.2278L92.555 16.6666C92.5228 21.0831 92.5214 21.1081 92.2614 21.6362C91.8773 22.4163 91.3226 22.7454 90.3051 22.7967C89.0017 22.8625 88.3042 22.4076 87.9048 21.231C87.7553 20.7909 87.7286 20.0675 87.7286 16.4727V12.2335H86.07H84.4114L84.4444 17.006ZM97.8679 18.6125V25.0179H99.5762H101.284V22.5933V20.1686L102.194 20.1748C102.694 20.1782 103.274 20.2403 103.483 20.3126C104.059 20.5117 104.23 20.9187 104.42 22.5417C104.512 23.3278 104.619 24.2064 104.659 24.4944L104.731 25.0179H106.534C107.584 25.0179 108.338 24.9747 108.338 24.9145C108.338 24.8577 108.266 24.4981 108.179 24.1155C108.092 23.7328 107.941 22.8032 107.845 22.0496C107.556 19.796 107.096 19.0902 105.768 18.8635L105.308 18.7851L105.974 18.5424C107.39 18.026 108.116 17.0069 108.114 15.5398C108.112 14.5359 107.895 13.9972 107.26 13.4245C106.167 12.4393 105.634 12.3343 101.367 12.2644L97.8679 12.2072V18.6125ZM109.66 18.6257V25.0179H111.314H112.967V18.6257V12.2335H111.314H109.66V18.6257ZM114.84 18.6257V25.0179H118.477H122.114V23.8056V22.5933H120.13H118.147V17.4134V12.2335H116.493H114.84V18.6257ZM126.912 12.4239C126.87 12.5314 125.827 15.3221 124.594 18.6257C123.362 21.9293 122.319 24.7203 122.276 24.828C122.204 25.0112 122.307 25.0219 123.889 24.9933L125.58 24.9628L125.95 23.778L126.321 22.5933H128.788H131.255L131.628 23.778L132.002 24.9628L133.9 24.993C135.674 25.0212 135.793 25.0105 135.733 24.8277C135.698 24.7201 134.633 21.8549 133.366 18.4604L131.063 12.2886L129.026 12.2586C127.162 12.2313 126.982 12.2454 126.912 12.4239ZM103.955 14.9865C104.4 15.2021 104.616 15.6055 104.616 16.2165C104.616 17.2786 104.123 17.6165 102.434 17.7121L101.284 17.7772V16.2606V14.744L102.469 14.792C103.129 14.8188 103.788 14.905 103.955 14.9865ZM129.654 17.5093C130.059 18.8653 130.37 19.9949 130.345 20.0196C130.32 20.0444 129.605 20.0508 128.754 20.034L127.209 20.0033L127.995 17.4484C128.428 16.0432 128.813 14.9274 128.85 14.9687C128.888 15.01 129.25 16.1533 129.654 17.5093Z" fill="#415164"/>
</svg>
