<svg width="66" height="39" viewBox="0 0 66 39" fill="none" xmlns="http://www.w3.org/2000/svg">
<path fill-rule="evenodd" clip-rule="evenodd" d="M0 19.24V38.48H32.7954H65.5909V19.24V0H32.7954H0V19.24ZM41.5558 10.3994C42.6632 10.8025 42.6708 10.8837 41.8825 13.8281C41.6314 14.7656 41.4568 14.9715 41.0517 14.8065C40.7696 14.6917 39.6506 14.4559 38.565 14.2828C33.0514 13.4039 29.5104 16.3583 29.8056 21.5909C29.9519 24.1807 30.7466 25.8039 32.4684 27.0276C33.6296 27.8531 33.9873 27.9438 36.0853 27.9438H38.4132L38.5024 25.7297L38.5917 23.5155H36.9082H35.2247V21.5305V19.5454H39.3242H43.4236V25.336V31.1269L41.8294 31.6208C40.9527 31.8923 38.7833 32.1912 37.009 32.2847C34.2718 32.4291 33.4632 32.3571 31.6725 31.8101C28.904 30.9645 27.0866 29.5419 25.8953 27.2878C22.9037 21.6285 24.678 14.2629 29.6938 11.5174C32.1814 10.1557 34.1088 9.75651 37.5022 9.90035C39.1723 9.9712 40.9964 10.1957 41.5558 10.3994ZM10.8844 15.6516C11.7323 18.7171 12.7264 22.4476 13.0936 23.9416L13.7613 26.6581L14.4519 23.7889C15.1885 20.7285 18.1432 10.3584 18.3333 10.1673C18.3958 10.1047 19.6035 10.0931 21.0167 10.1419L23.5866 10.2308L20.0602 21.0724L16.5335 31.9139L13.6092 32.001L10.6852 32.088L9.91424 29.7105C8.61123 25.6909 3.9476 10.5099 3.9476 10.2876C3.9476 10.1725 5.16164 10.0781 6.64533 10.0781H9.34305L10.8844 15.6516ZM61.6433 12.2159V14.3536H58.7585H55.8737V23.2101V32.0666H53.4444H51.0151V23.2101V14.3536H48.1303H45.2455V12.2159V10.0781H53.4444H61.6433V12.2159Z" fill="#415164"/>
</svg>
