<svg width="20" height="17" viewBox="0 0 20 17" fill="none" xmlns="http://www.w3.org/2000/svg">
<path fill-rule="evenodd" clip-rule="evenodd" d="M0 2.5C0 1.39543 0.895431 0.5 2 0.5H18C19.1046 0.5 20 1.39543 20 2.5V14.5C20 15.6046 19.1046 16.5 18 16.5H2C0.895431 16.5 0 15.6046 0 14.5V2.5Z" fill="#00ABC2"/>
<path fill-rule="evenodd" clip-rule="evenodd" d="M2.91598 14.2996C2.9999 14.3787 2.97113 14.5154 3.20371 14.4986C3.55618 14.4986 3.56577 14.2828 3.56577 14.1317C3.56577 13.9807 3.03827 13.772 3.01429 13.5491C2.99031 13.3261 3.13657 13.2661 3.25886 13.2661C3.37875 13.2661 3.46507 13.3381 3.46507 13.398C3.46507 13.4579 3.40512 13.4771 3.3212 13.4771C3.23728 13.4771 3.35717 13.434 3.28284 13.398C3.20851 13.362 3.16295 13.4507 3.16295 13.5059C3.16295 13.5586 3.34518 13.5754 3.46507 13.5371C3.48905 13.657 3.50343 13.6641 3.33079 13.868C3.45308 13.7888 3.46507 13.772 3.59934 13.8152C3.46507 13.7001 3.56577 13.4651 3.57057 13.4052C3.57536 13.3452 3.54659 13.2733 3.49144 13.2373C3.39314 13.151 3.17973 13.1462 3.05265 13.2038C2.86563 13.2853 2.85604 13.5299 2.90639 13.6114L3.42191 14.1389C3.45787 14.2012 3.46986 14.3739 3.25167 14.3835C3.01909 14.4003 2.93996 14.0862 2.8992 13.9807C2.84405 14.0957 2.7841 14.4122 2.55152 14.3931C2.33333 14.3859 2.29017 14.2132 2.32613 14.1509L2.85604 13.6114C2.90399 13.5299 2.8968 13.2853 2.71217 13.2038C2.58269 13.1462 2.36929 13.151 2.27098 13.2397C2.21823 13.2733 2.18706 13.3452 2.19186 13.4052C2.19665 13.4651 2.29736 13.7001 2.16309 13.8128C2.29736 13.7697 2.30695 13.7888 2.42924 13.868C2.26139 13.6641 2.27098 13.6546 2.29736 13.5347C2.41725 13.5754 2.60188 13.5586 2.60188 13.5059C2.60188 13.4507 2.55392 13.362 2.47959 13.398C2.40766 13.434 2.52754 13.4771 2.44362 13.4771C2.3573 13.4771 2.29736 13.4603 2.29736 13.398C2.29736 13.3357 2.38128 13.2661 2.50357 13.2661C2.62585 13.2661 2.77212 13.3285 2.74574 13.5491C2.72176 13.7697 2.18227 14.0118 2.18227 14.1629C2.18227 14.3139 2.22063 14.4986 2.5731 14.4986C2.80568 14.5154 2.83206 14.3787 2.91598 14.2972V14.2996Z" fill="#FFEC2D"/>
<path fill-rule="evenodd" clip-rule="evenodd" d="M2.8877 11.1345C2.97162 11.053 3.03876 10.8108 3.27134 10.83C3.62381 10.83 3.75809 11.0242 3.75809 11.1753C3.75809 11.3263 3.03876 12.5588 3.01478 12.7818C2.99081 13.0024 3.13707 13.0647 3.25935 13.0647C3.37924 13.0647 3.46556 12.9928 3.46556 12.9304C3.46556 12.8681 3.40562 12.8513 3.3217 12.8513C3.23777 12.8513 3.35526 12.8945 3.28333 12.9304C3.2114 12.9664 3.16344 12.8777 3.16344 12.8249C3.16344 12.7698 3.34328 12.753 3.46556 12.7938C3.48954 12.6739 3.50153 12.6643 3.33129 12.4605C3.45357 12.5396 3.46556 12.5564 3.59984 12.5132C3.46556 12.6283 3.56627 12.8633 3.57106 12.9232C3.57586 12.9832 3.54708 13.0551 3.48954 13.0911C3.39363 13.1798 3.17783 13.1822 3.05315 13.1246C2.86612 13.0431 2.85653 12.7986 2.90688 12.717L3.59984 11.2184C3.6358 11.1561 3.53989 10.9547 3.3193 10.9451C3.08911 10.9259 3.00759 11.1681 2.96923 11.2736L3.28333 11.2496C3.28333 11.2496 3.29532 11.2976 3.28333 11.3311C3.12028 11.3407 2.96923 11.3719 2.96923 11.3719L2.95724 11.5301H3.11309L3.0987 11.6021C3.0987 11.6021 2.96923 11.5925 2.95484 11.6021C2.94285 11.6117 2.93086 11.7627 2.93086 11.7627C2.93086 11.7627 2.90688 11.7699 2.88291 11.7699C2.85413 11.7699 2.83016 11.7627 2.83016 11.7627C2.83016 11.7627 2.81817 11.6117 2.80618 11.6021C2.79419 11.5925 2.66231 11.6021 2.66231 11.6021L2.65032 11.5301H2.80618L2.79419 11.3719C2.79419 11.3719 2.64073 11.3407 2.47769 11.3311C2.4657 11.3 2.47769 11.252 2.47769 11.252L2.79419 11.276C2.75343 11.1681 2.6743 10.9259 2.44172 10.9451C2.22352 10.9523 2.12522 11.1561 2.16118 11.2184L2.85653 12.717C2.90449 12.7986 2.8949 13.0431 2.71027 13.1246C2.58319 13.1822 2.36979 13.1798 2.27148 13.0911C2.21633 13.0551 2.18756 12.9832 2.19235 12.9232C2.19715 12.8633 2.29546 12.6283 2.16118 12.5156C2.29546 12.5588 2.30744 12.5396 2.42973 12.4605C2.26189 12.6643 2.27148 12.6739 2.29546 12.7938C2.41774 12.753 2.59997 12.7698 2.59997 12.8249C2.59997 12.8777 2.55202 12.9664 2.48008 12.9304C2.40575 12.8945 2.52804 12.8513 2.44172 12.8513C2.3578 12.8513 2.29785 12.8681 2.29785 12.9304C2.29785 12.9928 2.38178 13.0647 2.50406 13.0647C2.62635 13.0647 2.77021 13.0024 2.74623 12.7794C2.72226 12.5588 2.00293 11.3263 2.00293 11.1729C2.00293 11.0242 2.1372 10.83 2.48967 10.83C2.72226 10.8108 2.80378 11.053 2.8877 11.1345V11.1345Z" fill="#FFEC2D"/>
<path fill-rule="evenodd" clip-rule="evenodd" d="M2.88717 10.5231C2.97109 10.6046 3.03823 10.8468 3.27081 10.8276C3.62328 10.8276 3.75756 10.6334 3.75756 10.4823C3.75756 10.3312 3.03823 9.09879 3.01425 8.8758C2.99027 8.6552 3.13654 8.59286 3.25882 8.59286C3.37871 8.59286 3.46503 8.6648 3.46503 8.72714C3.46503 8.78948 3.40509 8.80626 3.32116 8.80626C3.23724 8.80626 3.35713 8.7631 3.2828 8.72714C3.20847 8.69117 3.16291 8.77989 3.16291 8.83264C3.16291 8.88779 3.34274 8.90457 3.46503 8.86381C3.48901 8.9837 3.501 8.99329 3.33075 9.1971C3.45304 9.11797 3.46503 9.10119 3.5993 9.14435C3.46503 9.02925 3.56573 8.79427 3.57053 8.73433C3.57533 8.67439 3.54655 8.60245 3.48901 8.56649C3.3931 8.47777 3.1773 8.47537 3.05262 8.53292C2.86559 8.61444 2.856 8.85901 2.90635 8.94054L3.5993 10.4391C3.63527 10.5015 3.53936 10.7029 3.31877 10.7125C3.08858 10.7317 3.00706 10.4895 2.96869 10.384L3.2828 10.408C3.2828 10.408 3.29479 10.36 3.2828 10.3264C3.11975 10.3145 2.96869 10.2857 2.96869 10.2857L2.9567 10.1274H3.10776L3.09577 10.0555C3.09577 10.0555 2.9663 10.0651 2.95191 10.0555C2.94232 10.0459 2.92793 9.89484 2.92793 9.89484C2.92793 9.89484 2.90395 9.88765 2.87998 9.88765C2.8512 9.88765 2.82723 9.89484 2.82723 9.89484C2.82723 9.89484 2.81524 10.0459 2.80325 10.0555C2.79126 10.0651 2.65938 10.0555 2.65938 10.0555L2.64739 10.1274H2.80325L2.79126 10.2857C2.79126 10.2857 2.6378 10.3145 2.47476 10.3264C2.46277 10.3576 2.47476 10.4056 2.47476 10.4056L2.79126 10.3816C2.7505 10.4895 2.67137 10.7317 2.43879 10.7125C2.22059 10.7053 2.12229 10.5015 2.16065 10.4391L2.8536 8.94054C2.90156 8.85901 2.89197 8.61444 2.70734 8.53292C2.58026 8.47537 2.36686 8.47777 2.26855 8.56649C2.2134 8.60245 2.18463 8.67439 2.18942 8.73433C2.19422 8.79427 2.29253 9.02925 2.15825 9.14195C2.29253 9.09879 2.30452 9.11797 2.4268 9.1971C2.25656 8.99329 2.26855 8.9837 2.29253 8.86381C2.41481 8.90457 2.59704 8.88779 2.59704 8.83264C2.59704 8.77749 2.54909 8.69117 2.47715 8.72714C2.40522 8.7631 2.52511 8.80626 2.43879 8.80626C2.35487 8.80626 2.29492 8.78948 2.29492 8.72714C2.29492 8.6648 2.37885 8.59526 2.50113 8.59526C2.62342 8.59526 2.76728 8.6552 2.7433 8.8782C2.71933 9.09879 2 10.3312 2 10.4847C2 10.6334 2.13427 10.8276 2.48674 10.8276C2.71933 10.8468 2.80085 10.6046 2.88477 10.5231H2.88717Z" fill="#FFEC2D"/>
<path fill-rule="evenodd" clip-rule="evenodd" d="M2.8877 6.46369C2.97162 6.38216 3.03876 6.13999 3.27134 6.15678C3.62381 6.15678 3.75809 6.35339 3.75809 6.50445C3.75809 6.65311 3.03876 7.88556 3.01478 8.10855C2.99081 8.32914 3.13707 8.39149 3.25935 8.39149C3.37924 8.39149 3.46556 8.31955 3.46556 8.25961C3.46556 8.19966 3.40562 8.17808 3.3217 8.17808C3.23777 8.17808 3.35526 8.22364 3.28333 8.25961C3.2114 8.29557 3.16344 8.20686 3.16344 8.15171C3.16344 8.09896 3.34328 8.07978 3.46556 8.12054C3.48954 8.00065 3.50153 7.99346 3.33129 7.78965C3.45357 7.86877 3.46556 7.88556 3.59984 7.8424C3.46556 7.95749 3.56627 8.19247 3.57106 8.25002C3.57586 8.30756 3.54708 8.38189 3.48954 8.41786C3.39363 8.50658 3.17783 8.51137 3.05315 8.45383C2.86612 8.3699 2.85653 8.12533 2.90688 8.04621L3.59984 6.54761C3.6358 6.48527 3.53989 6.28146 3.3193 6.27187C3.08911 6.25508 3.00759 6.49726 2.96923 6.60276L3.28333 6.57878C3.28333 6.57878 3.29532 6.62674 3.28333 6.6603C3.12028 6.6699 2.96923 6.69867 2.96923 6.69867L2.95724 6.85932H3.11309L3.0987 6.93125C3.0987 6.93125 2.96923 6.92166 2.95484 6.93125C2.94285 6.93844 2.93086 7.0895 2.93086 7.0895C2.93086 7.0895 2.90688 7.09909 2.88291 7.09909C2.85413 7.09909 2.83016 7.0895 2.83016 7.0895C2.83016 7.0895 2.81817 6.93844 2.80618 6.93125C2.79419 6.92166 2.66231 6.93125 2.66231 6.93125L2.65032 6.85932H2.80618L2.79419 6.69867C2.79419 6.69867 2.64073 6.6699 2.47769 6.6603C2.4657 6.62913 2.47769 6.57878 2.47769 6.57878L2.79419 6.60276C2.75343 6.49726 2.6743 6.25508 2.44172 6.27187C2.22352 6.28146 2.12522 6.48527 2.16118 6.54761L2.85653 8.04621C2.90449 8.12533 2.8949 8.3699 2.71027 8.45383C2.58319 8.51137 2.36979 8.50658 2.27148 8.41786C2.21633 8.38429 2.18756 8.31236 2.19235 8.25002C2.19715 8.18768 2.29546 7.95749 2.16118 7.8424C2.29546 7.88556 2.30744 7.86877 2.42973 7.78965C2.26189 7.99346 2.27148 8.00305 2.29546 8.12054C2.41774 8.08217 2.59997 8.09896 2.59997 8.15171C2.59997 8.20446 2.55202 8.29557 2.48008 8.25961C2.40575 8.22364 2.52804 8.17808 2.44172 8.17808C2.3578 8.17808 2.29785 8.19727 2.29785 8.25961C2.29785 8.32195 2.38178 8.39149 2.50406 8.39149C2.62635 8.39149 2.77021 8.32914 2.74623 8.10855C2.72226 7.88556 2.00293 6.65311 2.00293 6.50205C2.00293 6.35339 2.1372 6.15678 2.48967 6.15678C2.72226 6.13999 2.80378 6.38216 2.8877 6.46369V6.46369Z" fill="#FFEC2D"/>
<path fill-rule="evenodd" clip-rule="evenodd" d="M2.8877 5.85225C2.97162 5.93377 3.03876 6.17355 3.27134 6.15677C3.62381 6.15677 3.75809 5.96255 3.75809 5.81149C3.75809 5.66043 3.03876 4.42798 3.01478 4.20499C2.99081 3.9844 3.13707 3.92206 3.25935 3.92206C3.37924 3.92206 3.46556 3.99399 3.46556 4.05393C3.46556 4.11388 3.40562 4.13546 3.3217 4.13546C3.23777 4.13546 3.35766 4.0899 3.28333 4.05393C3.209 4.01797 3.16344 4.10908 3.16344 4.16183C3.16344 4.21458 3.34328 4.23377 3.46556 4.193C3.48954 4.31289 3.50153 4.32008 3.33129 4.52389C3.45357 4.44477 3.46556 4.42798 3.59984 4.47114C3.46556 4.35605 3.56627 4.12107 3.57106 4.06352C3.57586 4.00598 3.54708 3.93165 3.48954 3.89568C3.39363 3.80696 3.17783 3.80217 3.05315 3.85972C2.86612 3.94364 2.85653 4.18821 2.90688 4.26733L3.59984 5.76593C3.6358 5.82827 3.53989 6.03208 3.3193 6.04167C3.08911 6.05846 3.00759 5.81628 2.96923 5.71078L3.28333 5.73476C3.28333 5.73476 3.29532 5.68681 3.28333 5.65324C3.17799 5.64637 3.07312 5.63356 2.96923 5.61487L2.95724 5.45422H3.1083L3.09631 5.38229C3.09631 5.38229 2.96683 5.39188 2.95244 5.38229C2.94285 5.3751 2.92846 5.22404 2.92846 5.22404C2.92846 5.22404 2.90449 5.21445 2.88051 5.21445C2.85174 5.21445 2.82776 5.22404 2.82776 5.22404C2.82776 5.22404 2.81577 5.3751 2.80378 5.38469C2.79179 5.39188 2.65991 5.38469 2.65991 5.38469L2.64793 5.45662H2.80378L2.79179 5.61487C2.79179 5.61487 2.63834 5.64365 2.47529 5.65324C2.46859 5.68 2.46859 5.708 2.47529 5.73476L2.79179 5.71078C2.75103 5.81628 2.6719 6.05846 2.43932 6.04167C2.22113 6.03208 2.12282 5.82827 2.16118 5.76593L2.85413 4.26733C2.90209 4.18821 2.8925 3.94364 2.70787 3.85972C2.58079 3.80217 2.36739 3.80696 2.26908 3.89568C2.21393 3.93165 2.18516 4.00118 2.18995 4.06352C2.19475 4.12587 2.29306 4.35605 2.15878 4.47114C2.29306 4.42798 2.30505 4.44717 2.42733 4.52389C2.25709 4.32008 2.26908 4.31289 2.29306 4.193C2.41534 4.23137 2.59757 4.21698 2.59757 4.16183C2.59757 4.10668 2.54962 4.01797 2.47769 4.05393C2.40575 4.0899 2.52564 4.13546 2.43932 4.13546C2.3554 4.13546 2.29546 4.11628 2.29546 4.05393C2.29546 3.99159 2.37938 3.92206 2.50166 3.92206C2.62395 3.92206 2.77021 3.9844 2.74623 4.20499C2.72226 4.42798 2.00293 5.66043 2.00293 5.81149C2.00293 5.96255 2.1372 6.15677 2.48967 6.15677C2.72226 6.17355 2.80378 5.93377 2.8877 5.85225V5.85225Z" fill="#FFEC2D"/>
<path fill-rule="evenodd" clip-rule="evenodd" d="M2.91598 2.6872C2.9999 2.60568 2.97113 2.4714 3.20371 2.48579C3.55618 2.48579 3.56577 2.70159 3.56577 2.85264C3.56577 3.0037 3.03827 3.21471 3.01429 3.4353C2.99031 3.65829 3.13657 3.72063 3.25886 3.72063C3.37875 3.72063 3.46507 3.6487 3.46507 3.58636C3.46507 3.52402 3.40512 3.50963 3.3236 3.50963C3.24208 3.50963 3.35957 3.55519 3.28524 3.58876C3.21091 3.62232 3.16535 3.53601 3.16535 3.48325C3.16535 3.4305 3.34758 3.41132 3.46747 3.45208C3.49144 3.3322 3.50583 3.3226 3.33319 3.1188C3.45308 3.19792 3.46747 3.21471 3.59934 3.17394C3.46507 3.28904 3.56577 3.52402 3.57057 3.58156C3.57536 3.63911 3.54659 3.71344 3.49144 3.74941C3.39314 3.83812 3.17973 3.84292 3.05265 3.78537C2.86563 3.70145 2.85604 3.45688 2.90639 3.37775L3.42191 2.85025C3.45787 2.78551 3.46986 2.61287 3.25167 2.60328C3.01909 2.58649 2.93996 2.903 2.8992 3.0061C2.84405 2.89101 2.7841 2.5745 2.55152 2.59129C2.33333 2.60088 2.29017 2.77352 2.32613 2.83586L2.85604 3.37536C2.90399 3.45448 2.8968 3.69905 2.71217 3.78297C2.58269 3.84052 2.36929 3.83572 2.27098 3.74701C2.21823 3.71104 2.18706 3.64151 2.19186 3.57916C2.19665 3.51682 2.29736 3.28664 2.16309 3.17155C2.29736 3.21471 2.30695 3.19552 2.42924 3.1164C2.26139 3.32021 2.27098 3.3322 2.29736 3.44969C2.41725 3.40892 2.60188 3.42571 2.60188 3.48086C2.60188 3.53361 2.55392 3.62472 2.47959 3.58636C2.40766 3.55279 2.52754 3.50723 2.44362 3.50723C2.3573 3.50723 2.29736 3.52641 2.29736 3.58636C2.29736 3.6463 2.38128 3.72063 2.50357 3.72063C2.62585 3.72063 2.77212 3.65829 2.74574 3.4353C2.72176 3.21471 2.18227 2.97253 2.18227 2.82147C2.18227 2.67042 2.22063 2.48579 2.5731 2.48579C2.80568 2.469 2.83206 2.60568 2.91598 2.6872V2.6872Z" fill="#FFEC2D"/>
<path d="M14.6895 7.40747C14.6895 6.32003 13.7593 5.43848 12.6118 5.43848C11.4644 5.43848 10.5342 6.32003 10.5342 7.40747C10.5342 8.49492 11.4644 9.37646 12.6118 9.37646C13.7593 9.37646 14.6895 8.49492 14.6895 7.40747Z" fill="#FFEC2D"/>
<path fill-rule="evenodd" clip-rule="evenodd" d="M12.5146 4.26416C12.4951 4.26416 12.4023 4.91846 12.3682 5.06494C12.334 5.39453 12.8076 5.38232 12.7295 5.05273L12.5146 4.26172V4.26416ZM12.6807 10.6069C12.6978 10.6069 12.8394 9.95996 12.8857 9.81592C12.9419 9.49121 12.4683 9.47412 12.5195 9.80615L12.6807 10.6069V10.6069ZM9.37012 7.39404C9.37012 7.41113 10.0513 7.54785 10.2026 7.5918C10.5444 7.64795 10.5688 7.20117 10.2173 7.25L9.37012 7.39648V7.39404ZM16.0034 7.47217C16.0034 7.45508 15.3149 7.34277 15.1611 7.30371C14.8169 7.26221 14.8145 7.70898 15.1611 7.64795L16.0034 7.47217ZM10.0684 5.31885C10.0562 5.33105 10.5054 5.83887 10.5957 5.96338C10.8301 6.20752 11.1401 5.86572 10.8301 5.69971L10.0684 5.32129V5.31885ZM15.2222 9.49365C15.2344 9.48145 14.7412 9.0127 14.6387 8.89795C14.3823 8.67334 14.1064 9.03711 14.4287 9.17871L15.2222 9.49609V9.49365ZM11.0962 4.61084C11.0815 4.61816 11.2915 5.24805 11.3257 5.39697C11.4429 5.70703 11.8677 5.50439 11.6479 5.23828L11.0986 4.61084H11.0962ZM14.1016 10.2847C14.1187 10.2773 13.9551 9.63525 13.9331 9.48633C13.8379 9.16895 13.4009 9.33984 13.5986 9.62305L14.104 10.2822L14.1016 10.2847ZM14.8413 5.05029C14.8267 5.03809 14.2847 5.45557 14.1528 5.53857C13.8916 5.7583 14.2456 6.05615 14.4263 5.76563L14.8413 5.05029ZM10.3735 9.7793C10.3857 9.7915 10.9595 9.41309 11.0962 9.3374C11.3721 9.13721 11.0425 8.81494 10.8398 9.09326L10.376 9.7793H10.3735ZM9.51904 6.26123C9.51172 6.27588 10.105 6.62012 10.2344 6.71045C10.5396 6.86914 10.7178 6.4541 10.3687 6.38818L9.51904 6.26123V6.26123ZM15.7129 8.66357C15.7202 8.64893 15.1514 8.26563 15.0293 8.16797C14.7363 7.9873 14.5288 8.39014 14.873 8.47803L15.7129 8.66357V8.66357ZM13.7451 4.44238C13.728 4.4375 13.3887 5.01367 13.2983 5.13818C13.2985 5.17794 13.3111 5.21666 13.3344 5.24889C13.3577 5.28112 13.3905 5.30526 13.4282 5.31791C13.4659 5.33057 13.5066 5.3311 13.5446 5.31945C13.5826 5.3078 13.616 5.28454 13.6401 5.25293L13.7451 4.44238ZM11.4526 10.4067C11.4697 10.4141 11.8506 9.85986 11.9482 9.74024C12.1265 9.45703 11.6943 9.27637 11.6138 9.60352L11.4526 10.4067V10.4067ZM9.56055 8.71484C9.56787 8.72949 10.2441 8.56836 10.4028 8.54395C10.7349 8.45117 10.5493 8.04102 10.2563 8.23145L9.56055 8.71484ZM15.7153 6.20752C15.7104 6.19287 15.0244 6.30762 14.8657 6.32227C14.5239 6.39307 14.6826 6.81543 14.9878 6.64453L15.7153 6.20752V6.20752Z" fill="#FFEC2D"/>
<path fill-rule="evenodd" clip-rule="evenodd" d="M13.189 4.30566C13.1719 4.30322 12.9424 4.92578 12.874 5.0625C12.7739 5.37988 13.2402 5.45801 13.2329 5.12109L13.1914 4.30322L13.189 4.30566ZM12.0049 10.5532C12.022 10.5581 12.2979 9.9502 12.376 9.81592C12.498 9.5083 12.0391 9.40088 12.022 9.73535L12.0024 10.5532H12.0049ZM11.7681 4.3667C11.751 4.37158 11.8145 5.03076 11.8145 5.18213C11.8608 5.50684 12.3174 5.39453 12.166 5.0918L11.7681 4.3667V4.3667ZM13.4282 10.5166C13.4453 10.5142 13.4282 9.85254 13.4404 9.70117C13.4185 9.37158 12.9521 9.45459 13.084 9.76709L13.4258 10.5166H13.4282ZM10.5913 4.91357C10.5767 4.92334 10.9014 5.50684 10.9624 5.646C11.1382 5.93164 11.5166 5.66309 11.2505 5.43604L10.5913 4.91357ZM14.6147 9.98926C14.6294 9.97949 14.3462 9.37402 14.2974 9.23242C14.1436 8.93701 13.748 9.18115 13.9946 9.42285L14.6147 9.98926ZM9.73193 5.73389C9.72217 5.74854 10.2471 6.18311 10.3569 6.29541C10.6279 6.50049 10.8794 6.11963 10.5474 6L9.73193 5.73389ZM15.4497 9.14453C15.4595 9.12988 14.9687 8.66113 14.8662 8.54395C14.6123 8.32178 14.334 8.68555 14.6562 8.82715L15.4497 9.14453ZM9.35596 6.75684C9.35107 6.77393 9.99805 7.02051 10.1396 7.09131C10.4668 7.20117 10.5718 6.76416 10.2153 6.75439L9.35596 6.75684V6.75684ZM15.8843 8.16797C15.8916 8.15332 15.2642 7.86523 15.1274 7.78467C14.8101 7.65283 14.6709 8.08252 15.0249 8.1167L15.8843 8.16797ZM9.33398 8.01416C9.33643 8.02881 10.0347 8.01904 10.1934 8.03125C10.54 8.01416 10.457 7.57227 10.125 7.69189L9.33398 8.01416ZM15.9307 6.91553C15.9307 6.89844 15.2324 6.86182 15.0762 6.83984C14.7271 6.83496 14.7783 7.28174 15.1177 7.18164L15.9307 6.91309V6.91553ZM9.93213 9.31787C9.94189 9.33252 10.5669 9.03467 10.7134 8.97852C11.0161 8.81982 10.7378 8.45605 10.4961 8.70264L9.93213 9.31787ZM15.3594 5.59961C15.3496 5.58496 14.7075 5.84131 14.5537 5.8877C14.2388 6.02686 14.4902 6.40772 14.749 6.17822L15.3594 5.59961V5.59961ZM10.9478 10.1821C10.9624 10.1895 11.4092 9.68164 11.5215 9.57422C11.7339 9.31299 11.3262 9.08594 11.2065 9.40332L10.9478 10.1821ZM14.3584 4.71826C14.3462 4.7085 13.8628 5.18457 13.7432 5.28467C13.5137 5.53125 13.9043 5.78516 14.0459 5.47754L14.356 4.71826H14.3584Z" fill="#FFEC2D"/>
<path fill-rule="evenodd" clip-rule="evenodd" d="M9.43637 8.71712C9.47367 8.84303 9.47899 9.54812 10.2303 10.228C10.9762 10.9029 12.2549 11.054 12.2549 11.054C12.2549 11.054 12.2603 11.1497 12.1697 11.1547C12.0791 11.1648 11.6422 11.0792 11.4238 11.0137C11.2106 10.9533 11.0188 10.8425 10.9975 10.8475C10.9709 10.8576 10.9282 10.9281 10.8643 10.918C10.8004 10.9079 10.4913 10.6058 10.3528 10.5252C10.0757 10.2988 9.83041 10.0398 9.62285 9.75462C9.47367 9.52798 9.43637 9.37689 9.38842 9.37689C9.34046 9.37689 9.16463 9.48769 9.16463 9.48769C9.16463 9.48769 9.00479 9.26105 8.86626 8.89843C8.7224 8.53581 8.73838 8.32428 8.77035 8.30918C8.80765 8.29407 8.80765 8.5761 8.91421 8.83296C9.02077 9.09485 9.16996 9.17543 9.16996 9.17543C9.16996 9.17543 9.07405 9.03945 8.99946 8.70201C8.92487 8.36458 8.8929 8.03721 8.94618 7.93648C8.99946 7.83576 9.04741 7.80554 9.05274 7.81057C9.0634 7.82065 8.96216 7.9667 9.03143 8.3545C9.1007 8.7423 9.28718 9.06967 9.32981 9.05456C9.37243 9.03945 9.30317 8.95887 9.27652 8.73223C9.24988 8.50559 9.30317 8.36458 9.36177 8.34443C9.38842 8.32428 9.43104 8.59625 9.43637 8.71712V8.71712ZM8.91421 9.36178C8.77035 9.23587 8.54657 8.7977 8.49862 8.81785C8.44534 8.84303 8.86093 9.47258 8.87159 9.52294C8.88224 9.58338 8.97282 9.75462 8.90356 9.72943C8.83429 9.70425 8.33877 9.21069 8.39738 9.30638C8.45599 9.40207 8.82896 9.8352 8.80765 9.86038C8.78634 9.88556 8.49862 9.61863 8.48796 9.65389C8.48263 9.68411 8.77035 9.946 8.76502 9.97622C8.7597 10.0064 8.57854 9.81002 8.57854 9.85031C8.57854 9.8906 8.76502 10.087 8.76502 10.1172C8.76502 10.1475 8.60518 9.97622 8.65846 10.0669C8.70641 10.1676 8.84495 10.2532 8.83962 10.2834C8.83429 10.3137 8.7224 10.2431 8.7224 10.2583C8.7224 10.2734 8.9302 10.3439 8.97815 10.3993C9.03143 10.4547 9.37243 10.8274 9.62818 11.0137C9.88393 11.2001 10.6192 11.5274 10.6725 11.5274C10.7204 11.5274 10.795 11.4267 10.7791 11.3864C10.7631 11.3461 10.0438 11.1144 9.84663 10.9432C9.64416 10.772 9.15398 10.359 9.11135 10.3388C9.07406 10.3137 8.96217 10.3237 8.96217 10.2985C8.96217 10.2734 9.10602 10.3137 9.09537 10.2985C9.09004 10.2834 8.89823 10.2029 8.90356 10.1877C8.91421 10.1726 9.03676 10.218 9.03676 10.2029C9.03676 10.1877 8.81298 10.0719 8.82363 10.0467C8.82896 10.0215 8.98881 10.1172 8.98881 10.0971C8.98881 10.087 8.77568 9.946 8.78101 9.92082C8.78634 9.89563 8.94618 10.0316 8.94085 10.0014C8.93552 9.97118 8.81298 9.79994 8.81298 9.7798C8.81298 9.75462 9.00479 9.95103 9.0261 9.91074C9.03676 9.87549 8.95684 9.54812 8.96217 9.54309C8.96749 9.53805 9.10602 9.6136 9.12734 9.56827C9.15398 9.51791 9.03143 9.45243 8.91421 9.36178V9.36178ZM11.3705 11.8397C11.2692 11.8548 11.2213 11.8195 11.2799 11.7389C11.3598 11.7389 11.5729 11.6735 11.6475 11.6433C11.7221 11.613 11.8021 11.5727 11.866 11.5173C11.9299 11.4519 11.9726 11.5526 11.9353 11.608C11.9086 11.6433 11.7861 11.7087 11.6955 11.744C11.5623 11.7843 11.4451 11.8447 11.3705 11.8397ZM12.0365 11.5828C11.9672 11.5123 12.0258 11.4619 12.1271 11.4065C12.2763 11.331 12.2336 11.2252 12.4254 11.1396C12.5107 11.0893 13.7042 10.636 14.0931 10.3942C14.4821 10.1525 15.5744 9.37185 15.8674 8.83296C16.1551 8.2991 16.0166 8.25881 16.0592 8.23867C16.0965 8.21348 16.1391 8.31421 16.1338 8.43509C16.1232 8.55092 16.0273 8.90347 16.0592 8.93872C16.0912 8.97398 16.4961 8.66172 16.6666 8.28399C16.8371 7.90627 16.965 7.51343 17.0449 7.51343C17.1302 7.51343 16.9064 8.15808 16.7625 8.4099C16.624 8.66172 16.4588 8.78763 16.4961 8.84303C16.5388 8.89339 16.9544 8.56603 17.0982 8.32428C17.2367 8.0775 17.3699 7.86094 17.3966 7.90627C17.3542 8.20129 17.2312 8.48077 17.0396 8.71712C16.8158 8.95887 16.5494 9.13514 16.592 9.1704C16.6293 9.21069 16.933 9.25098 17.2474 9.04952C17.5671 8.84303 17.5991 8.54589 17.6364 8.56099C17.679 8.5761 17.5991 8.98405 17.2954 9.23587C16.9917 9.48769 16.592 9.51287 16.6027 9.56827C16.624 9.61863 17.4712 9.3366 17.4552 9.40207C17.4392 9.46251 16.3576 9.86542 16.3469 9.90571C16.3469 9.93593 16.5334 9.946 16.8265 9.88053C17.1142 9.82009 17.3913 9.60352 17.4286 9.65389C17.4392 9.7244 17.2208 9.89563 16.8904 9.97622C16.5547 10.0568 16.3896 10.1626 16.3789 10.1877C16.3736 10.2129 16.9757 10.1172 16.9757 10.1475C16.9757 10.1777 16.1871 10.3237 16.1818 10.364C16.1711 10.3993 16.9277 10.218 16.9171 10.2633C16.8957 10.2985 15.8887 10.5806 15.8994 10.5957C15.9047 10.6158 16.7412 10.4245 16.7252 10.4547C16.7039 10.4899 15.3186 10.8576 15.308 10.8828C15.2973 10.9029 16.5334 10.6209 16.5228 10.6461C16.5121 10.6712 15.8834 10.8173 15.8834 10.8324C15.8834 10.8475 16.3896 10.7569 16.3789 10.782C16.3736 10.8022 15.1002 11.1094 15.0735 11.1547C15.0469 11.2051 15.7342 11.0288 15.7236 11.1195C15.7129 11.2101 14.2477 11.6735 14.2423 11.5879C14.2317 11.5022 15.1321 11.2857 15.1268 11.2605C15.1161 11.2353 14.61 11.3109 14.5993 11.2655C14.594 11.2152 14.935 11.1144 14.9084 11.0943C14.8817 11.0691 14.626 11.1648 14.6473 11.1094C14.6739 11.054 15.1588 10.8425 15.1481 10.8274C15.1428 10.8123 14.9723 10.8777 14.9883 10.8274C15.0096 10.772 16.0379 10.4899 16.0219 10.4547C16.0059 10.4245 15.5477 10.5252 15.5051 10.5353C15.4891 10.505 16.1445 10.2734 16.1338 10.2331C16.1125 10.1978 15.7822 10.3691 15.7609 10.3237C15.7502 10.2734 16.3416 10.0568 16.3043 10.0215C16.267 9.98629 16.0006 10.1122 15.9633 10.0769C15.926 10.0417 16.5228 9.65389 16.4322 9.64381C16.3416 9.63878 16.2297 9.76469 16.2191 9.68411C16.2297 9.58338 16.6826 9.41718 16.5814 9.3366C16.4215 9.29127 15.8834 9.37185 15.6596 9.49776C15.4358 9.62367 14.6899 10.3237 14.5087 10.4345C14.3276 10.5403 13.7095 10.7871 13.5923 10.8374C13.4111 10.8979 13.3792 10.9885 13.1927 11.0792C12.857 11.1648 12.8624 11.2605 12.7025 11.3159C12.6439 11.331 12.0418 11.603 12.0365 11.5828V11.5828ZM11.1946 11.9354C11.0934 11.9857 11.0028 12.1066 11.0614 12.157C11.0934 12.2174 11.1946 12.021 11.2746 12.0311L11.7008 12.0512C11.9299 12.0663 12.0418 12.0059 12.1697 12.0159C12.2976 12.026 12.58 11.9505 12.7132 11.9505C12.8464 11.9505 12.873 11.9656 12.8837 11.9102C12.8996 11.8598 12.4681 11.8951 12.2763 11.89C12.0844 11.88 11.8447 11.9253 11.7008 11.9253C11.5676 11.9203 11.3385 11.88 11.1946 11.9354V11.9354Z" fill="#FFEC2D"/>
<path d="M11.8345 11.8749C11.8345 11.8331 11.7939 11.7993 11.7439 11.7993C11.6939 11.7993 11.6533 11.8331 11.6533 11.8749C11.6533 11.9166 11.6939 11.9504 11.7439 11.9504C11.7939 11.9504 11.8345 11.9166 11.8345 11.8749Z" fill="#FFEC2D"/>
<path fill-rule="evenodd" clip-rule="evenodd" d="M13.96 11.7289C14.0506 11.7137 14.2957 11.7943 14.4662 11.8296C14.7752 11.9454 15.3507 11.89 15.3507 11.9454C15.3507 12.0008 15.3134 12.0663 15.1802 12.0764C15.047 12.0864 14.7113 12.026 14.722 12.026C14.7326 12.026 14.9884 12.1418 14.9138 12.1721C14.8392 12.2023 14.6207 12.1066 14.5834 12.1318C14.5461 12.1569 14.7859 12.2023 14.7433 12.2174C14.7113 12.2325 14.5461 12.1972 14.4929 12.2023C14.4396 12.2123 14.5355 12.2677 14.4715 12.2879C14.4076 12.3131 14.301 12.2577 14.2584 12.2728C14.2105 12.2879 14.3543 12.3735 14.2904 12.3836C14.2265 12.3937 14.0773 12.3433 13.992 12.3332C13.9068 12.3332 14.0719 12.4138 14.0187 12.4239C13.9654 12.4289 13.8162 12.3584 13.7789 12.3584C13.7416 12.3584 13.7789 12.4591 13.7256 12.4591C13.6723 12.4591 13.6084 12.3735 13.5764 12.3735C13.5444 12.3735 13.5764 12.4742 13.5231 12.4742C13.4699 12.4742 13.4485 12.3685 13.4059 12.3735C13.3526 12.3836 13.4059 12.5095 13.3313 12.4994C13.2621 12.4944 13.2514 12.3685 13.1928 12.3735C13.1395 12.3836 13.2034 12.4994 13.1502 12.4994C13.0969 12.4994 13.0862 12.3836 13.033 12.3735C12.9797 12.3685 13.001 12.4843 12.969 12.4843C12.937 12.4843 12.9051 12.3735 12.8838 12.3735C12.8678 12.3735 12.8838 12.4843 12.8198 12.4742C12.7559 12.4642 12.7559 12.3534 12.7399 12.3584C12.7186 12.3685 12.7186 12.4491 12.676 12.4491C12.6333 12.4491 12.628 12.3685 12.612 12.3785C12.5907 12.3836 12.5268 12.4843 12.4842 12.4692C12.4362 12.4541 12.4948 12.3735 12.4735 12.3735C12.4522 12.3735 12.3989 12.4289 12.3669 12.4239C12.335 12.4188 12.3669 12.3534 12.3563 12.3534C12.3456 12.3534 12.2657 12.3937 12.2284 12.3937C12.1911 12.3937 12.0899 12.444 12.0632 12.3987C12.0366 12.3483 12.1325 12.3483 12.1538 12.303C12.1698 12.2577 12.1005 12.1217 12.1751 12.0764C12.2444 12.026 12.4735 12.1418 12.8145 12.0613C13.4326 11.9051 13.9121 11.7238 13.96 11.7289V11.7289Z" fill="#FFEC2D"/>
</svg>
