<svg width="18" height="18" viewBox="0 0 18 18" fill="none" xmlns="http://www.w3.org/2000/svg">
<path fill-rule="evenodd" clip-rule="evenodd" d="M17.7179 7.29111C17.9989 7.46673 18.0844 7.83691 17.9087 8.1179C17.3819 8.96088 16.7558 9.7277 16.0442 10.3956L17.4854 11.8368C17.7197 12.0711 17.7197 12.451 17.4854 12.6854C17.2511 12.9196 16.8712 12.9196 16.6369 12.6854L15.1213 11.1698C14.166 11.8834 13.0907 12.4345 11.9205 12.7812L12.4596 14.7932C12.5453 15.1132 12.3553 15.4422 12.0353 15.528C11.7152 15.6138 11.3862 15.4238 11.3004 15.1038L10.751 13.053C10.1849 13.1496 9.60043 13.1998 9.00001 13.1998C8.39958 13.1998 7.81508 13.1496 7.24898 13.053L6.69959 15.1036C6.61384 15.4238 6.28484 15.6138 5.96477 15.528C5.64468 15.4423 5.45472 15.1132 5.54047 14.7932L6.0795 12.7812C4.90933 12.4345 3.83404 11.8833 2.87868 11.1697L1.36308 12.6854C1.12877 12.9196 0.74887 12.9196 0.514558 12.6854C0.280244 12.451 0.280244 12.0711 0.514558 11.8368L1.95578 10.3956C1.24418 9.72768 0.618136 8.96087 0.0912812 8.1179C-0.0843441 7.83691 0.00107823 7.46673 0.282078 7.29111C0.563077 7.11548 0.933244 7.20091 1.10887 7.48191C1.68425 8.40252 2.3868 9.21665 3.1948 9.8912C3.20778 9.90111 3.22044 9.91163 3.23276 9.92274C4.81076 11.2263 6.78644 11.9999 9.00001 11.9999C12.3694 11.9999 15.1877 10.2075 16.8912 7.4819C17.0668 7.20091 17.437 7.11548 17.7179 7.29111Z" fill="#7E8593"/>
</svg>
