<svg width="120" height="45" viewBox="0 0 120 45" fill="none" xmlns="http://www.w3.org/2000/svg">
<path d="M12.1591 23.4906C10.0997 21.1104 0.5 21.6608 0.5 28.8637C0.5 36.0665 8.29918 38.0093 12.3444 38.0093C17.0516 38.0093 23.4445 34.8229 23.5239 27.8938C23.6033 20.9647 17.7047 18.3882 16.3249 17.7783C18.0018 16.969 19.7758 15.5529 19.7758 13.1222C19.7758 10.6915 17.4222 7.25519 11.1764 7.10643C4.93061 6.95767 2.42699 10.2541 1.90626 12.0452C1.38553 13.8362 2.2799 15.4041 3.75088 15.4785C5.22187 15.5529 5.76614 14.818 5.81027 13.9314C5.81009 13.6488 5.73423 13.3715 5.59075 13.129C5.44727 12.8864 5.24152 12.6877 4.99534 12.5539C4.54816 12.2564 4.65995 11.1794 5.25717 10.7242C5.8544 10.269 7.19594 9.31101 9.77311 9.38539C12.3503 9.45977 15.4246 10.7688 15.4246 12.9109C15.4246 15.053 13.2976 16.3978 11.1705 16.3978V19.6705C13.8948 19.968 17.3487 22.4969 17.3487 27.8372C17.3487 33.1776 13.4476 34.3052 11.5265 34.2279C9.60542 34.1505 6.97823 33.0378 7.05178 29.1701C7.12533 25.3024 10.4262 24.1124 11.9002 24.5705C12.7033 24.9484 12.6857 23.9279 12.162 23.4965" fill="#415164"/>
<path d="M105.418 8.21294C103.574 7.2728 101.888 7.29065 100.905 7.57328C99.1402 8.08203 98.2958 9.68564 99.0225 10.9858C99.7492 12.2859 100.664 12.3424 101.408 11.9289C101.997 11.6076 102.156 10.9858 102.173 10.4592C102.191 9.93257 103.144 9.4387 103.815 9.70349C104.166 9.82669 104.504 9.98412 104.824 10.1736C105.071 9.53663 105.267 8.88107 105.412 8.21294" fill="#415164"/>
<path d="M106.728 7.36523H102.68V23.6006H106.728V7.36523Z" fill="#415164"/>
<path d="M106.518 16.3977V19.6704C109.225 19.9679 112.697 22.4998 112.697 27.8372C112.697 33.1746 108.798 34.3052 106.877 34.2278C104.956 34.1504 102.326 33.0377 102.4 29.1701C102.473 25.3024 105.777 24.1123 107.251 24.5705C108.054 24.9483 108.016 23.9278 107.513 23.4964C105.453 21.1163 95.8538 21.6667 95.8538 28.8696C95.8538 36.0724 103.65 38.0152 107.698 38.0152C112.405 38.0152 119.057 34.8288 118.878 27.8997C118.542 16.5941 107.069 16.3948 106.521 16.3948" fill="#415164"/>
<path d="M11.1693 8.08203H7.12109V23.6034H11.1693V8.08203Z" fill="#415164"/>
<path d="M28.5158 22.8304C29.7279 22.7173 30.5487 22.0182 31.1077 20.7478H31.2019C30.9606 22.4466 30.737 24.1424 30.4928 25.9721C27.8274 26.3292 25.2885 26.6118 22.623 26.8201C22.623 26.8022 22.6407 26.7278 22.6407 26.707C23.015 26.1612 23.2348 25.5223 23.2762 24.8594C23.3321 24.199 23.3674 23.1249 23.3674 21.6165V10.311C23.3903 9.66127 23.3529 9.01082 23.2556 8.3682C23.2254 8.18804 23.152 8.01813 23.0417 7.87339C22.9314 7.72866 22.7876 7.61353 22.623 7.53813V7.48161H28.8483C29.0927 7.49017 29.3372 7.46514 29.5749 7.40723H29.6308C29.6308 8.19862 29.6514 9.14174 29.6514 10.2515H29.5955C29.5295 10.0638 29.4208 9.89448 29.2782 9.75703C29.1357 9.61959 28.9632 9.51788 28.7747 9.46008C28.2648 9.35521 27.7444 9.31127 27.2243 9.32917H26.6653V13.3069C27.2243 13.3069 27.7656 13.2891 28.3275 13.2891C28.5488 13.3002 28.7691 13.252 28.966 13.1493H29.0395C29.0395 14.4315 29.0572 15.7704 29.0572 17.2609C29.0263 17.2563 28.9958 17.2493 28.966 17.2401C28.8512 16.6927 28.6718 16.41 28.404 16.3178C28.0184 16.2278 27.6227 16.1898 27.2272 16.2047C27.0419 16.2226 26.8536 16.2226 26.6388 16.2226V22.4704C27.089 22.7917 27.6832 22.9048 28.5041 22.8304" fill="#415164"/>
<path d="M35.8866 20.5486C35.8717 21.4502 35.9278 22.3515 36.0543 23.2441C36.1365 23.8622 36.3525 24.4545 36.6869 24.9786V25.0917C35.0835 25.3564 33.5537 25.6004 31.9503 25.8265V25.7135C32.3293 25.2046 32.556 24.5964 32.6034 23.9611C32.6593 23.3006 32.6946 22.301 32.6946 20.9056C32.6946 16.794 32.6769 13.194 32.6769 10.3082C32.6977 9.66441 32.6603 9.02009 32.5652 8.38323C32.5341 8.19852 32.4604 8.02384 32.3499 7.8734C32.2395 7.72295 32.0955 7.601 31.9297 7.51746V7.46094H36.1102C36.8192 7.46094 37.4165 7.47879 37.9372 7.51746C38.4012 7.53767 38.8542 7.66596 39.2611 7.89233C39.7993 8.1408 40.244 8.55813 40.5291 9.08239C40.8586 9.70757 41.0199 10.4093 40.9969 11.1174C41.0145 12.6645 40.585 13.9111 39.7465 14.8512C39.3561 15.2988 38.8812 15.663 38.3498 15.9225C37.8183 16.182 37.2409 16.3317 36.6516 16.3626C36.4337 16.3776 36.2149 16.3706 35.9984 16.3418C36.5607 15.8986 36.998 15.3138 37.2664 14.6459C37.5634 13.9148 37.7211 13.1335 37.7313 12.3432C37.693 10.2129 37.1429 9.42156 35.8866 9.34718C35.8866 12.2688 35.9043 16.1156 35.9043 20.5486H35.8866Z" fill="#415164"/>
<path d="M47.4698 19.3969C47.4664 20.1428 47.5285 20.8875 47.6551 21.6223C47.7373 22.1355 47.964 22.6138 48.3083 22.9998V23.0742C46.6666 23.3717 45.1015 23.6692 43.4775 23.9668V23.8745C43.8412 23.4543 44.0637 22.9283 44.113 22.3721C44.1689 21.8247 44.2042 20.9946 44.2042 19.7867C44.1866 15.9785 44.1689 12.4708 44.1483 9.62358C43.8597 9.55202 43.5628 9.52 43.2657 9.52837C42.5263 9.54692 41.8182 9.8342 41.2711 10.3376C41.2328 10.3763 41.1769 10.415 41.1387 10.4536C41.3799 9.28143 41.5858 8.30261 41.83 7.41602C41.9404 7.43917 42.0527 7.45211 42.1654 7.45469H50.403C50.197 8.34724 50.0117 9.30226 49.8146 10.3971C49.5733 9.77531 49.1055 9.48969 48.3436 9.47184C48.0445 9.47036 47.747 9.51449 47.461 9.60275C47.4786 12.3934 47.4992 15.7702 47.5169 19.3731L47.4698 19.3969Z" fill="#415164"/>
<path d="M58.6617 11.6848C57.6526 14.2285 56.7024 16.9835 55.7197 19.7742C55.5751 20.2477 55.3544 20.694 55.0666 21.0951C54.7132 21.5316 54.2758 21.8909 53.781 22.1513C53.2055 22.5282 52.5765 22.8141 51.9158 22.9992C51.8599 18.7924 51.8216 14.0411 51.804 10.2061C51.8089 9.59359 51.7647 8.98167 51.6716 8.3764C51.6389 8.19269 51.5648 8.01906 51.4551 7.86894C51.3455 7.71881 51.2031 7.59621 51.0391 7.51063V7.4541H55.961V7.51063C55.774 7.60925 55.6106 7.74792 55.482 7.91697C55.3535 8.08602 55.2629 8.28139 55.2167 8.48945C55.0833 9.04502 55.0328 9.6176 55.0666 10.1883C55.0872 11.9733 55.0872 13.9042 55.1225 15.9392C56.2434 12.7528 57.3231 9.81042 58.4617 7.51063V7.4541H62.6393V7.51063C62.4761 7.59277 62.3341 7.71212 62.2243 7.85927C62.1145 8.00641 62.0401 8.17733 62.0068 8.35855C61.93 8.9502 61.9044 9.54749 61.9303 10.1436C61.9509 12.7082 61.9891 15.5167 62.0421 18.12C62.0392 18.7016 62.0894 19.2822 62.1921 19.8545C62.238 20.0345 62.3242 20.2013 62.4441 20.3422C62.564 20.483 62.7143 20.5941 62.8835 20.6667V20.7233C61.2124 20.9434 59.5943 21.1814 57.8968 21.4789V21.4224C58.2768 21.1044 58.54 20.6664 58.6441 20.1788C58.7426 19.5893 58.78 18.9911 58.7559 18.3937C58.7176 16.1862 58.697 13.9042 58.6794 11.6996L58.6617 11.6848Z" fill="#415164"/>
<path d="M74.961 19.5876C74.9786 19.6055 74.9786 19.6055 74.9786 19.6233C73.3958 19.662 72.3691 19.7185 71.8072 19.7185C71.3462 19.7305 70.8883 19.6401 70.4656 19.4538C69.9973 19.1257 69.6032 18.7008 69.3094 18.2072C68.5986 17.0913 67.9446 15.9394 67.3501 14.756C67.3883 15.83 67.406 16.8386 67.4266 17.7728C67.4322 18.2987 67.4883 18.8228 67.5942 19.3377C67.6482 19.4959 67.7372 19.6396 67.8545 19.7577C67.9718 19.8757 68.1142 19.9651 68.2709 20.019V20.0577C66.6499 20.2273 65.12 20.3969 63.4784 20.623V20.6051C63.4961 20.6051 63.4961 20.5873 63.4961 20.5665C63.6523 20.4664 63.7874 20.336 63.8934 20.1828C63.9995 20.0296 64.0744 19.8566 64.1139 19.6739C64.1603 19.1089 64.1721 18.5416 64.1492 17.9751C64.0756 15.5057 64.0374 12.715 64.0197 10.1683C64.0366 9.57027 63.9922 8.97206 63.8873 8.38323C63.8582 8.20023 63.7871 8.02666 63.6798 7.87635C63.5726 7.72604 63.4321 7.60315 63.2695 7.51746V7.46094H68.0061V7.51746C67.845 7.59783 67.7043 7.71442 67.5947 7.8583C67.485 8.00218 67.4094 8.16953 67.3736 8.34753C67.2975 8.93924 67.2719 9.53647 67.2971 10.1326C67.3177 11.1501 67.3177 12.2152 67.3354 13.319C68.062 12.1676 68.771 11.0728 69.5183 9.99874C69.7978 9.58519 70.0037 9.30255 70.1332 9.10619C70.2513 8.91381 70.3163 8.69294 70.3215 8.46654C70.3009 8.07084 70.0773 7.78523 69.5918 7.52342V7.46689H73.9372V7.52342C72.544 9.15466 71.2548 10.8738 70.0773 12.6704C71.3276 14.9167 72.5397 17.1331 73.8636 18.7248C74.1543 19.1014 74.5322 19.3997 74.9639 19.5936" fill="#415164"/>
<path d="M80.2211 7.46094H82.3923C83.5514 10.2308 84.6488 14.6638 85.9756 17.9067C86.1567 18.3946 86.3874 18.8623 86.6641 19.302C86.9574 19.6459 87.2971 19.9464 87.6732 20.1946L87.6908 20.2124V20.2303C85.8638 19.9685 84.1281 19.7959 82.3011 19.6858V19.6947C82.7659 19.5252 82.9719 19.299 82.9542 18.9599C82.9166 18.7638 82.8532 18.5737 82.7659 18.3946C82.5247 17.865 82.3188 17.2997 82.0952 16.6601L80.23 16.6036V14.7381C80.6418 14.7381 81.0331 14.759 81.4421 14.759C81.0125 13.4945 80.6418 12.1736 80.23 10.8913L80.2211 7.46094ZM78.1882 17.7371C78.0453 18.085 77.9636 18.4556 77.947 18.8319C77.9422 18.8973 77.9513 18.963 77.9736 19.0246C77.996 19.0861 78.031 19.1422 78.0764 19.189C78.258 19.3318 78.4555 19.4526 78.6648 19.549V19.5668C77.4351 19.5668 76.2406 19.5668 75.0109 19.6233C74.9967 19.612 74.9839 19.599 74.9727 19.5847C75.2412 19.4241 75.4658 19.198 75.6258 18.9272C75.825 18.6228 75.9823 18.2925 76.0935 17.9454C76.8026 15.7378 77.5469 12.7418 78.35 10.0434C78.3883 9.93031 78.4442 9.72502 78.5001 9.53461C78.556 9.3442 78.6119 9.13892 78.6678 8.93958C78.6958 8.80321 78.7145 8.66503 78.7237 8.52604C78.7237 8.10952 78.5001 7.80903 78.0323 7.52639V7.46986H80.2153V10.8913C80.1928 10.7943 80.1612 10.6996 80.1211 10.6086H80.1035C79.7298 11.9683 79.3739 13.3636 79.0208 14.7203C79.415 14.7203 79.824 14.7381 80.2153 14.7381V16.5887C79.6739 16.5679 79.115 16.55 78.556 16.55C78.4236 16.9636 78.3118 17.3593 78.1823 17.7401" fill="#415164"/>
<path d="M91.1169 10.0434C91.2907 9.54132 91.4149 9.0231 91.4876 8.49629C91.4876 8.08274 91.264 7.8001 90.8168 7.51746V7.46094H95.1621C95.1621 7.77928 95.3857 8.51711 95.927 10.2516C96.7479 12.8906 97.5334 15.6813 98.5013 18.9272C98.819 20.0012 99.0632 20.6795 99.2103 21.0574C99.5043 21.6959 99.8415 22.3132 100.219 22.9049V23.0001C98.3895 22.1076 96.7126 21.6792 94.865 21.3013V21.2448C95.0615 21.1831 95.2305 21.0538 95.3428 20.8794C95.455 20.7051 95.5035 20.4965 95.4799 20.2898C95.4569 20.0182 95.3945 19.7515 95.2945 19.4984C94.306 16.6512 93.5293 13.5481 92.682 10.6711C92.0495 13.1226 91.4876 15.7646 90.9463 18.0465C90.7227 18.9391 90.4079 19.5728 89.9019 20.025C89.3958 20.4772 88.8604 20.5546 88.1367 20.4594C87.7058 20.0079 87.3186 19.5157 86.9805 18.9896C88.1749 19.0848 88.828 18.7814 89.1428 17.7252C89.7606 15.4046 90.3932 12.596 91.1228 10.0493" fill="#415164"/>
<path d="M97.6448 23.3944C93.4289 22.1687 87.1802 20.8298 81.1374 21.1869C71.0081 21.7759 52.709 24.5993 45.4159 25.7894C38.1227 26.9795 27.5492 27.5745 24.8809 27.277C26.0577 30.0855 29.0408 37.4222 41.2588 37.5174C58.3812 37.6662 77.2569 24.8998 89.625 25.483C91.6682 25.503 93.707 25.6801 95.7237 26.0125C96.1326 24.9385 97.1211 23.9002 97.6448 23.3914" fill="#415164"/>
</svg>
