<svg width="18" height="18" viewBox="0 0 18 18" fill="none" xmlns="http://www.w3.org/2000/svg">
<g clip-path="url(#clip0_2344_26713)">
<path fill-rule="evenodd" clip-rule="evenodd" d="M9 13.2C5.76342 13.2 3.03542 11.5462 1.31546 9.00002C3.03542 6.4538 5.76342 4.80001 9 4.80001C12.2365 4.80001 14.9646 6.4538 16.6846 9.00002C14.9646 11.5462 12.2365 13.2 9 13.2ZM9 3.60001C5.16943 3.60001 1.98767 5.64766 0.0912002 8.68202C-0.0304006 8.87659 -0.0304001 9.12346 0.0912017 9.31802C1.98767 12.3523 5.16943 14.4 9 14.4C12.8305 14.4 16.0123 12.3523 17.9088 9.31802C18.0304 9.12346 18.0304 8.87659 17.9088 8.68202C16.0123 5.64766 12.8305 3.60001 9 3.60001ZM9 11.4C10.3255 11.4 11.4 10.3255 11.4 9.00001C11.4 7.67452 10.3255 6.60001 9 6.60001C7.67452 6.60001 6.6 7.67452 6.6 9.00001C6.6 10.3255 7.67452 11.4 9 11.4Z" fill="#7E8593"/>
</g>
<defs>
<clipPath id="clip0_2344_26713">
<rect width="18" height="18" fill="white"/>
</clipPath>
</defs>
</svg>
