<svg width="56" height="56" viewBox="0 0 56 56" fill="none" xmlns="http://www.w3.org/2000/svg">
<path fill-rule="evenodd" clip-rule="evenodd" d="M21.7385 3.11017C24.8829 -1.03672 31.1171 -1.03672 34.2615 3.11017L36.8795 6.56294L41.1723 5.97271C46.328 5.26384 50.7362 9.67204 50.0273 14.8278L49.4371 19.1205L52.8898 21.7385C57.0367 24.8829 57.0367 31.1171 52.8898 34.2615L49.4371 36.8795L50.0273 41.1723C50.7362 46.328 46.328 50.7362 41.1723 50.0273L36.8795 49.4371L34.2615 52.8898C31.1171 57.0367 24.8829 57.0367 21.7385 52.8898L19.1205 49.4371L14.8277 50.0273C9.67203 50.7362 5.26384 46.328 5.97271 41.1723L6.56294 36.8795L3.11017 34.2615C-1.03672 31.1171 -1.03672 24.8829 3.11017 21.7385L6.56294 19.1205L5.97272 14.8278C5.26384 9.67203 9.67204 5.26384 14.8278 5.97272L19.1205 6.56294L21.7385 3.11017ZM38.9833 24.9832C39.8945 24.072 39.8945 22.5946 38.9833 21.6834C38.0721 20.7722 36.5947 20.7722 35.6835 21.6834L25.6667 31.7002L22.65 28.6834C21.7388 27.7722 20.2614 27.7722 19.3502 28.6834C18.4389 29.5946 18.4389 31.072 19.3502 31.9833L24.0168 36.6499C24.928 37.5611 26.4054 37.5611 27.3167 36.6499L38.9833 24.9832Z" fill="url(#paint0_linear_2630_25981)"/>
<defs>
<linearGradient id="paint0_linear_2630_25981" x1="5.83334" y1="5.83333" x2="52.5" y2="56" gradientUnits="userSpaceOnUse">
<stop stop-color="#DF3639"/>
<stop offset="1" stop-color="#EB7E80"/>
</linearGradient>
</defs>
</svg>
