<svg width="85" height="20" viewBox="0 0 85 20" fill="none" xmlns="http://www.w3.org/2000/svg">
<path fill-rule="evenodd" clip-rule="evenodd" d="M6.76504 15C5.95215 15 5.24611 14.8805 4.64692 14.6414C4.04773 14.4023 3.5512 14.0663 3.15733 13.6333C2.76345 13.2003 2.47015 12.6793 2.2774 12.0704C2.08465 11.4614 1.98828 10.7871 1.98828 10.0474V9.93911C1.98828 9.19034 2.1056 8.5115 2.34025 7.90257C2.5749 7.29364 2.89963 6.77492 3.31446 6.34641C3.72928 5.91791 4.22162 5.58638 4.79148 5.35183C5.36134 5.11727 5.97729 5 6.63933 5C7.24271 5 7.79581 5.07668 8.29862 5.23004C8.80144 5.3834 9.23721 5.6157 9.60595 5.92693C9.97468 6.23816 10.2722 6.63283 10.4984 7.11096C10.7247 7.58909 10.863 8.15742 10.9133 8.81597H7.97179C7.92989 8.36491 7.8 8.01985 7.58211 7.78078C7.36422 7.54172 7.05416 7.42219 6.6519 7.42219C6.13232 7.42219 5.72588 7.63419 5.43257 8.05819C5.13926 8.48219 4.99261 9.10464 4.99261 9.92558V10.0338C4.99261 10.8457 5.13926 11.4659 5.43257 11.8945C5.72588 12.323 6.14908 12.5372 6.70218 12.5372C7.10444 12.5372 7.43965 12.4222 7.70782 12.1922C7.97599 11.9621 8.13521 11.6035 8.18549 11.1164H11.0264C10.9845 11.7569 10.8525 12.3184 10.6304 12.8011C10.4084 13.2837 10.1088 13.6874 9.73165 14.0122C9.35454 14.3369 8.91458 14.5828 8.41176 14.7497C7.90894 14.9166 7.36004 15 6.76504 15ZM12.9659 5.14885H15.8194V8.72125H18.4591V5.14885H21.3126V14.8241H18.4591V11.1028H15.8194V14.8241H12.9659V5.14885ZM27.9157 15C26.5916 15 25.5755 14.6527 24.8674 13.9581C24.1593 13.2634 23.8052 12.2215 23.8052 10.8322V5.14885H26.6461V10.7104C26.6461 11.0262 26.665 11.3013 26.7027 11.5359C26.7404 11.7704 26.8053 11.9666 26.8975 12.1245C26.9897 12.2824 27.1196 12.3996 27.2872 12.4763C27.4548 12.553 27.6643 12.5913 27.9157 12.5913C28.4185 12.5913 28.7538 12.4357 28.9214 12.1245C29.089 11.8133 29.1728 11.3374 29.1728 10.6969V5.14885H32.0388V10.8051C32.0388 11.5359 31.9424 12.1651 31.7497 12.6928C31.557 13.2206 31.2804 13.6558 30.9201 13.9986C30.5597 14.3415 30.126 14.594 29.619 14.7564C29.112 14.9188 28.5443 15 27.9157 15ZM34.5188 5.14885H37.3723V12.456H40.6406V14.8241H34.5188V5.14885ZM44.9936 5.14885H48.6767L51.4925 14.8241H48.4756L48.0608 13.2138H45.2199L44.8176 14.8241H42.1653L44.9936 5.14885ZM45.7604 11.1299H47.5328L46.6529 7.62517L45.7604 11.1299ZM53.3314 5.14885H56.1849V8.81597L58.6738 5.14885H61.6279L58.4727 9.61434L61.8039 14.8241H58.523L56.1849 10.954V14.8241H53.3314V5.14885ZM67.2631 12.5913C67.8245 12.5913 68.2708 12.3681 68.6018 11.9215C68.9328 11.475 69.0983 10.8457 69.0983 10.0338V9.92558C69.0983 9.10464 68.9307 8.47767 68.5955 8.04466C68.2603 7.61164 67.8078 7.39513 67.2379 7.39513C66.6848 7.39513 66.2428 7.60938 65.9117 8.03789C65.5807 8.4664 65.4152 9.09562 65.4152 9.92558V10.0338C65.4152 10.8638 65.5807 11.4975 65.9117 11.935C66.2428 12.3726 66.6932 12.5913 67.2631 12.5913ZM67.1876 15C66.4502 15 65.7881 14.8805 65.2015 14.6414C64.6149 14.4023 64.1163 14.0641 63.7056 13.6265C63.295 13.189 62.9807 12.6658 62.7629 12.0568C62.545 11.4479 62.436 10.7781 62.436 10.0474V9.93911C62.436 9.19034 62.5596 8.5115 62.8069 7.90257C63.0541 7.29364 63.3935 6.77492 63.8251 6.34641C64.2566 5.91791 64.7657 5.58638 65.3524 5.35183C65.939 5.11727 66.5675 5 67.2379 5C67.9251 5 68.5641 5.11051 69.1549 5.33153C69.7457 5.55255 70.2569 5.87054 70.6885 6.28552C71.1201 6.7005 71.4574 7.20794 71.7004 7.80785C71.9434 8.40776 72.065 9.09111 72.065 9.85792V9.96617C72.065 10.724 71.9497 11.4118 71.7193 12.0298C71.4888 12.6477 71.1599 13.1755 70.7325 13.613C70.3051 14.0505 69.7918 14.3911 69.1926 14.6346C68.5934 14.8782 67.9251 15 67.1876 15ZM73.4262 5.14885H76.506L78.1778 11.6306L79.8497 5.14885H82.5146L79.6108 14.8241H76.3928L73.4262 5.14885Z" fill="#0C1F34"/>
</svg>
