<svg width="143" height="54" viewBox="0 0 143 54" fill="currentColor" xmlns="http://www.w3.org/2000/svg">
<path d="M13.8937 27.9931C11.4396 25.1568 0 25.8127 0 34.3961C0 42.9794 9.29402 45.2946 14.1146 45.2946C19.7239 45.2946 27.3422 41.4975 27.4368 33.2403C27.5315 24.9831 20.5022 21.9128 18.858 21.186C20.8563 20.2216 22.9704 18.534 22.9704 15.6375C22.9704 12.7409 20.1657 8.64596 12.7227 8.46869C5.27982 8.29142 2.29633 12.2197 1.6758 14.354C1.05526 16.4883 2.12104 18.3568 3.87397 18.4454C5.6269 18.534 6.27548 17.6583 6.32807 16.6018C6.32786 16.265 6.23746 15.9346 6.06648 15.6455C5.89549 15.3565 5.65031 15.1197 5.35695 14.9603C4.82406 14.6057 4.95728 13.3223 5.66897 12.7799C6.38066 12.2374 7.97933 11.0958 11.0505 11.1845C14.1216 11.2731 17.7852 12.8331 17.7852 15.3857C17.7852 17.9384 15.2505 19.5409 12.7157 19.5409V23.4408C15.9622 23.7954 20.078 26.809 20.078 33.1729C20.078 39.5369 15.4293 40.8806 13.1399 40.7884C10.8506 40.6962 7.71989 39.3702 7.80754 34.7612C7.89519 30.1523 11.8288 28.7341 13.5852 29.2801C14.5423 29.7304 14.5213 28.5143 13.8972 28.0002" fill="currentColor"/>
<path d="M125.029 9.78755C122.831 8.66721 120.822 8.68848 119.651 9.0253C117.548 9.63156 116.541 11.5425 117.407 13.0918C118.273 14.6412 119.364 14.7085 120.251 14.2157C120.952 13.8328 121.141 13.0918 121.162 12.4643C121.183 11.8368 122.319 11.2482 123.118 11.5638C123.536 11.7106 123.939 11.8982 124.321 12.124C124.615 11.3649 124.849 10.5837 125.022 9.78755" fill="currentColor"/>
<path d="M126.587 8.77734H121.763V28.1245H126.587V8.77734Z" fill="currentColor"/>
<path d="M126.339 19.5407V23.4406C129.564 23.7951 133.701 26.8122 133.701 33.1727C133.701 39.5331 129.056 40.8803 126.767 40.7881C124.477 40.696 121.343 39.37 121.431 34.761C121.518 30.152 125.455 28.7338 127.212 29.2798C128.169 29.7301 128.123 28.514 127.524 27.9999C125.07 25.1636 113.63 25.8195 113.63 34.4029C113.63 42.9863 122.921 45.3014 127.745 45.3014C133.354 45.3014 141.281 41.5043 141.067 33.2471C140.667 19.7746 126.994 19.5371 126.342 19.5371" fill="currentColor"/>
<path d="M12.7157 9.63037H7.8916V28.1266H12.7157V9.63037Z" fill="currentColor"/>
<path d="M33.3865 27.2064C34.8309 27.0717 35.809 26.2385 36.4751 24.7246H36.5873C36.2999 26.7491 36.0334 28.7699 35.7424 30.9503C32.5661 31.3758 29.5406 31.7126 26.3643 31.9608C26.3643 31.9395 26.3853 31.8509 26.3853 31.826C26.8314 31.1757 27.0932 30.4143 27.1426 29.6244C27.2092 28.8373 27.2512 27.5574 27.2512 25.7599V12.2874C27.2786 11.5132 27.234 10.7381 27.118 9.97231C27.0821 9.75762 26.9946 9.55514 26.8631 9.38266C26.7317 9.21019 26.5604 9.073 26.3643 8.98314V8.91578H33.7827C34.0739 8.92598 34.3652 8.89617 34.6486 8.82715H34.7152C34.7152 9.77022 34.7397 10.8941 34.7397 12.2165H34.6731C34.5944 11.9929 34.4649 11.7911 34.295 11.6273C34.1251 11.4635 33.9196 11.3423 33.695 11.2735C33.0873 11.1485 32.4672 11.0961 31.8474 11.1175H31.1813V15.8576C31.8474 15.8576 32.4925 15.8364 33.1621 15.8364C33.4258 15.8496 33.6883 15.7922 33.9229 15.6697H34.0105C34.0105 17.1978 34.0316 18.7932 34.0316 20.5695C33.9948 20.5639 33.9584 20.5556 33.9229 20.5446C33.7862 19.8923 33.5723 19.5555 33.2533 19.4456C32.7937 19.3384 32.3222 19.2931 31.8509 19.3108C31.6301 19.3321 31.4057 19.3321 31.1498 19.3321V26.7774C31.6862 27.1603 32.3943 27.2951 33.3725 27.2064" fill="currentColor"/>
<path d="M42.1685 24.4873C42.1507 25.5616 42.2175 26.6357 42.3683 27.6994C42.4663 28.436 42.7236 29.1418 43.1221 29.7663V29.9011C41.2114 30.2166 39.3884 30.5073 37.4777 30.7768V30.642C37.9293 30.0356 38.1995 29.3109 38.256 28.5538C38.3226 27.7667 38.3646 26.5755 38.3646 24.9127C38.3646 20.013 38.3436 15.7231 38.3436 12.284C38.3684 11.5169 38.3238 10.7491 38.2104 9.99018C38.1734 9.77007 38.0855 9.5619 37.9539 9.38263C37.8223 9.20335 37.6507 9.05802 37.4531 8.95848V8.89111H42.4349C43.2799 8.89111 43.9915 8.91239 44.6121 8.95848C45.165 8.98255 45.7049 9.13543 46.1897 9.40519C46.8311 9.70128 47.361 10.1986 47.7007 10.8233C48.0934 11.5683 48.2857 12.4046 48.2582 13.2484C48.2792 15.092 47.7673 16.5775 46.7682 17.6978C46.3029 18.2312 45.737 18.6652 45.1037 18.9745C44.4704 19.2838 43.7824 19.462 43.08 19.4989C42.8204 19.5168 42.5597 19.5085 42.3017 19.4741C42.9718 18.946 43.4928 18.2491 43.8127 17.4532C44.1667 16.582 44.3546 15.6509 44.3667 14.7091C44.3211 12.1706 43.6655 11.2275 42.1685 11.1389C42.1685 14.6205 42.1895 19.2046 42.1895 24.4873H42.1685Z" fill="currentColor"/>
<path d="M55.9723 23.1151C55.9683 24.004 56.0422 24.8915 56.1932 25.7671C56.2911 26.3786 56.5613 26.9486 56.9715 27.4086V27.4972C55.0152 27.8518 53.1501 28.2063 51.2149 28.5609V28.451C51.6483 27.9502 51.9134 27.3233 51.9722 26.6605C52.0388 26.0082 52.0808 25.019 52.0808 23.5796C52.0598 19.0415 52.0388 14.8615 52.0142 11.4686C51.6702 11.3833 51.3165 11.3451 50.9625 11.3551C50.0813 11.3772 49.2375 11.7196 48.5855 12.3195C48.5399 12.3655 48.4733 12.4116 48.4277 12.4577C48.7152 11.0608 48.9606 9.89441 49.2516 8.83789C49.3832 8.86548 49.5169 8.8809 49.6513 8.88398H59.4677C59.2223 9.9476 59.0014 11.0857 58.7665 12.3904C58.479 11.6494 57.9216 11.309 57.0136 11.2878C56.6572 11.286 56.3027 11.3386 55.9618 11.4437C55.9829 14.7693 56.0074 18.7933 56.0284 23.0868L55.9723 23.1151Z" fill="currentColor"/>
<path d="M69.3084 13.9243C68.1059 16.9557 66.9735 20.2387 65.8025 23.5642C65.6302 24.1285 65.3672 24.6604 65.0242 25.1384C64.6031 25.6585 64.0819 26.0867 63.4922 26.397C62.8064 26.8461 62.0569 27.1869 61.2695 27.4074C61.2029 22.3943 61.1573 16.7323 61.1362 12.1623C61.1422 11.4324 61.0894 10.7032 60.9785 9.98188C60.9395 9.76297 60.8513 9.55606 60.7206 9.37716C60.5899 9.19826 60.4202 9.05216 60.2247 8.95017V8.88281H66.09V8.95017C65.8672 9.0677 65.6724 9.23295 65.5192 9.4344C65.3661 9.63585 65.2581 9.86866 65.203 10.1166C65.0442 10.7787 64.9839 11.461 65.0242 12.141C65.0488 14.2682 65.0488 16.5692 65.0909 18.9942C66.4266 15.1971 67.7132 11.6908 69.07 8.95017V8.88281H74.0483V8.95017C73.8539 9.04806 73.6846 9.19029 73.5538 9.36564C73.423 9.54098 73.3342 9.74466 73.2946 9.96061C73.2031 10.6657 73.1726 11.3774 73.2034 12.0878C73.228 15.144 73.2735 18.4908 73.3366 21.593C73.3332 22.2861 73.393 22.978 73.5154 23.66C73.5701 23.8744 73.6728 24.0733 73.8157 24.2411C73.9586 24.4089 74.1377 24.5413 74.3393 24.6279V24.6952C72.348 24.9576 70.4198 25.2412 68.3969 25.5957V25.5284C68.8498 25.1495 69.1634 24.6275 69.2874 24.0464C69.4048 23.3439 69.4494 22.631 69.4206 21.9192C69.375 19.2885 69.3505 16.5692 69.3294 13.9421L69.3084 13.9243Z" fill="currentColor"/>
<path d="M88.7321 23.3421C88.7531 23.3634 88.7531 23.3634 88.7531 23.3846C86.867 23.4307 85.6434 23.4981 84.9738 23.4981C84.4245 23.5124 83.8788 23.4047 83.3751 23.1826C82.8171 22.7916 82.3475 22.2852 81.9973 21.697C81.1502 20.3673 80.3709 18.9946 79.6624 17.5844C79.708 18.8643 79.729 20.0662 79.7536 21.1794C79.7603 21.8061 79.8272 22.4307 79.9534 23.0443C80.0177 23.2328 80.1238 23.404 80.2636 23.5447C80.4033 23.6854 80.5731 23.792 80.7598 23.8562V23.9023C78.828 24.1044 77.005 24.3064 75.0487 24.5759V24.5546C75.0698 24.5546 75.0698 24.5333 75.0698 24.5085C75.256 24.3893 75.4169 24.2339 75.5433 24.0514C75.6697 23.8688 75.759 23.6626 75.806 23.4449C75.8613 22.7716 75.8753 22.0955 75.8481 21.4205C75.7604 18.4778 75.7148 15.1523 75.6938 12.1174C75.7139 11.4047 75.661 10.6919 75.536 9.99018C75.5013 9.77211 75.4166 9.56527 75.2888 9.38615C75.1609 9.20703 74.9935 9.06058 74.7998 8.95848V8.89111H80.4442V8.95848C80.2523 9.05425 80.0846 9.19318 79.9539 9.36464C79.8233 9.53609 79.7331 9.73552 79.6905 9.94764C79.5998 10.6528 79.5693 11.3645 79.5993 12.0749C79.6239 13.2874 79.6239 14.5566 79.6449 15.872C80.5109 14.4999 81.3558 13.1952 82.2462 11.9153C82.5793 11.4225 82.8247 11.0857 82.979 10.8517C83.1198 10.6225 83.1972 10.3592 83.2034 10.0895C83.1788 9.61792 82.9124 9.27756 82.3339 8.96557V8.8982H87.5121V8.96557C85.8519 10.9095 84.3156 12.9581 82.9124 15.0991C84.4024 17.7758 85.8468 20.4172 87.4244 22.3139C87.7708 22.7626 88.2211 23.1182 88.7356 23.3492" fill="currentColor"/>
<path d="M95.0025 8.89111H97.5898C98.9711 12.1919 100.279 17.4745 101.86 21.339C102.076 21.9204 102.351 22.4777 102.68 23.0017C103.03 23.4116 103.435 23.7696 103.883 24.0654L103.904 24.0866V24.1079C101.727 23.7959 99.6583 23.5903 97.4811 23.4591V23.4697C98.035 23.2676 98.2805 22.9982 98.2594 22.594C98.2145 22.3604 98.1391 22.1339 98.035 21.9204C97.7476 21.2893 97.5022 20.6157 97.2357 19.8534L95.013 19.7861V17.5631C95.5038 17.5631 95.9701 17.5879 96.4574 17.5879C95.9456 16.0812 95.5038 14.507 95.013 12.9789L95.0025 8.89111ZM92.5799 21.1369C92.4096 21.5515 92.3123 21.993 92.2925 22.4416C92.2868 22.5195 92.2976 22.5978 92.3242 22.6711C92.3508 22.7445 92.3926 22.8113 92.4467 22.867C92.6631 23.0372 92.8984 23.1812 93.1479 23.296V23.3173C91.6824 23.3173 90.2591 23.3173 88.7936 23.3846C88.7767 23.3711 88.7614 23.3556 88.748 23.3385C89.0681 23.1472 89.3357 22.8778 89.5263 22.555C89.7637 22.1924 89.9512 21.7988 90.0838 21.385C90.9287 18.7544 91.8157 15.1842 92.7728 11.9685C92.8183 11.8338 92.8849 11.5891 92.9516 11.3622C93.0182 11.1353 93.0848 10.8907 93.1514 10.6532C93.1848 10.4907 93.2071 10.326 93.218 10.1604C93.218 9.66401 92.9516 9.30592 92.3941 8.96911V8.90175H94.9955V12.9789C94.9687 12.8633 94.9311 12.7506 94.8833 12.6421H94.8623C94.417 14.2624 93.9928 15.9252 93.5721 17.5418C94.0419 17.5418 94.5292 17.5631 94.9955 17.5631V19.7683C94.3504 19.7435 93.6843 19.7223 93.0182 19.7223C92.8604 20.2151 92.7272 20.6866 92.5729 21.1404" fill="currentColor"/>
<path d="M107.984 11.9685C108.191 11.3702 108.339 10.7527 108.426 10.1249C108.426 9.6321 108.159 9.29529 107.626 8.95848V8.89111H112.804C112.804 9.27047 113.071 10.1497 113.716 12.2167C114.694 15.3614 115.63 18.687 116.784 22.555C117.162 23.8349 117.453 24.6433 117.629 25.0935C117.979 25.8545 118.381 26.5901 118.831 27.2952V27.4087C116.65 26.345 114.652 25.8345 112.45 25.3842V25.3169C112.685 25.2433 112.886 25.0893 113.02 24.8815C113.154 24.6737 113.211 24.4251 113.183 24.1788C113.156 23.8552 113.081 23.5374 112.962 23.2357C111.784 19.8428 110.859 16.145 109.849 12.7166C109.095 15.638 108.426 18.7863 107.781 21.5056C107.514 22.5692 107.139 23.3244 106.536 23.8633C105.933 24.4022 105.295 24.4943 104.432 24.3809C103.919 23.8429 103.458 23.2564 103.055 22.6295C104.478 22.7429 105.256 22.3813 105.632 21.1227C106.368 18.3573 107.121 15.0104 107.991 11.9756" fill="currentColor"/>
<path d="M115.763 27.8783C110.739 26.4176 103.293 24.8222 96.0917 25.2477C84.0211 25.9496 62.2146 29.3142 53.5236 30.7324C44.8326 32.1505 32.2325 32.8596 29.0527 32.5051C30.4551 35.8519 34.01 44.5948 48.5698 44.7083C68.9739 44.8855 91.4675 29.6723 106.206 30.3672C108.641 30.3911 111.071 30.6021 113.474 30.9983C113.961 29.7184 115.139 28.4811 115.763 27.8748" fill="currentColor"/>
</svg>
