<svg width="16" height="17" viewBox="0 0 16 17" fill="none" xmlns="http://www.w3.org/2000/svg">
<path fill-rule="evenodd" clip-rule="evenodd" d="M10.3327 2.58496C10.6088 2.58496 10.8327 2.80881 10.8327 3.08496V4.58496H12.3327C12.6088 4.58496 12.8327 4.80881 12.8327 5.08496C12.8327 5.3611 12.6088 5.58496 12.3327 5.58496H10.8327V7.08496C10.8327 7.36107 10.6088 7.58494 10.3327 7.58494C10.0565 7.58494 9.83268 7.36107 9.83268 7.08496V5.58496H8.33268C8.05655 5.58496 7.83268 5.3611 7.83268 5.08496C7.83268 4.80881 8.05655 4.58496 8.33268 4.58496H9.83268V3.08496C9.83268 2.80881 10.0565 2.58496 10.3327 2.58496ZM4.99935 3.25163C3.98988 3.25163 3.16602 4.07548 3.16602 5.08496V13.2183C3.16602 14.1075 4.09006 14.7233 4.91408 14.2524L4.96462 14.2235L6.96395 12.3575C6.98635 12.3497 7.01235 12.3497 7.03475 12.3575L9.03408 14.2235L9.08462 14.2524C9.90862 14.7233 10.8327 14.1075 10.8327 13.2183V9.08494C10.8327 8.80881 10.6088 8.58494 10.3327 8.58494C10.0565 8.58494 9.83268 8.80881 9.83268 9.08494V13.2183C9.83268 13.3109 9.78995 13.3655 9.74768 13.3912C9.71602 13.4105 9.67348 13.4211 9.61968 13.4022L7.64402 11.5583L7.61002 11.5356C7.24208 11.2903 6.75662 11.2903 6.38866 11.5356L6.3547 11.5583L4.37901 13.4022C4.32525 13.4211 4.28269 13.4105 4.25099 13.3912C4.20876 13.3655 4.16602 13.3109 4.16602 13.2183V5.08496C4.16602 4.62777 4.54216 4.25163 4.99935 4.25163H6.99935C7.27548 4.25163 7.49935 4.02777 7.49935 3.75163C7.49935 3.47548 7.27548 3.25163 6.99935 3.25163H4.99935Z" fill="#0C1F34"/>
</svg>
