<svg width="24" height="24" viewBox="0 0 24 24" fill="none" xmlns="http://www.w3.org/2000/svg">
<path d="M5.82617 6.81055H18.818C19.0812 6.81056 19.3415 6.86573 19.5822 6.9725C19.8228 7.07928 20.0384 7.23529 20.215 7.43047C20.3916 7.62566 20.5254 7.8557 20.6077 8.10575C20.69 8.3558 20.719 8.62032 20.6928 8.88226L20.1275 14.535C20.081 14.9999 19.8634 15.431 19.517 15.7445C19.1706 16.0581 18.72 16.2317 18.2527 16.2317H9.25548C8.81973 16.2319 8.39738 16.081 8.06035 15.8048C7.72333 15.5286 7.49245 15.1441 7.40705 14.7168L5.82617 6.81055Z" stroke="#0C1F34" stroke-width="1.5" stroke-linecap="round" stroke-linejoin="round"/>
<path d="M5.82635 6.81046L5.06324 3.75518C5.0122 3.55145 4.89455 3.37061 4.72898 3.2414C4.56341 3.11218 4.35941 3.042 4.14938 3.04199H3" stroke="#0C1F34" stroke-width="1.5" stroke-linecap="round" stroke-linejoin="round"/>
<path d="M8.65234 20H10.5366" stroke="#0C1F34" stroke-width="1.5" stroke-linecap="round" stroke-linejoin="round"/>
<path d="M17.0918 20H18.976" stroke="#0C1F34" stroke-width="1.5" stroke-linecap="round" stroke-linejoin="round"/>
</svg>
