<svg width="24" height="24" viewBox="0 0 24 24" fill="currentColor" xmlns="http://www.w3.org/2000/svg">
<path d="M13.5352 19.9996V20.7496H15.0352V19.9996H13.5352ZM15.0352 9.71387V8.96387H13.5352V9.71387H15.0352ZM15.0352 19.9996V9.71387H13.5352V19.9996H15.0352Z" />
<path d="M18.1064 19.9999L18.1064 20.7499L19.6064 20.7499L19.6064 19.9999L18.1064 19.9999ZM19.6064 16.5713L19.6064 15.8213L18.1064 15.8213L18.1064 16.5713L19.6064 16.5713ZM19.6064 19.9999L19.6064 16.5713L18.1064 16.5713L18.1064 19.9999L19.6064 19.9999Z" />
<path d="M8.96387 20V20.75H10.4639V20H8.96387ZM10.4639 4V3.25H8.96387V4H10.4639ZM10.4639 20V4H8.96387V20H10.4639Z" />
<path d="M4.39258 19.9997L4.39258 20.7497L5.89258 20.7497L5.89258 19.9997L4.39258 19.9997ZM5.89258 13.1426L5.89258 12.3926L4.39258 12.3926L4.39258 13.1426L5.89258 13.1426ZM5.89258 19.9997L5.89258 13.1426L4.39258 13.1426L4.39258 19.9997L5.89258 19.9997Z" />
</svg>
