<svg width="16" height="17" viewBox="0 0 16 17" fill="none" xmlns="http://www.w3.org/2000/svg">
<path fill-rule="evenodd" clip-rule="evenodd" d="M13 5.7956V10.5C13 11.0523 12.5523 11.5 12 11.5H4C3.44772 11.5 3 11.0523 3 10.5V5.7956L4.16572 7.30206C4.83089 8.16166 6.16098 8.05051 6.67424 7.09242L8 4.61768L9.32576 7.09242C9.83902 8.05051 11.1691 8.16167 11.8343 7.30206L13 5.7956ZM2 5.7956C2 4.84219 3.2074 4.42959 3.79087 5.18361L4.95659 6.69008C5.17831 6.97661 5.62168 6.93956 5.79276 6.6202L7.11852 4.14545C7.4955 3.44175 8.5045 3.44175 8.88148 4.14545L10.2072 6.6202C10.3783 6.93956 10.8217 6.97661 11.0434 6.69008L12.2091 5.18361C12.7926 4.4296 14 4.84219 14 5.7956V10.5C14 11.6046 13.1046 12.5 12 12.5H4C2.89543 12.5 2 11.6046 2 10.5V5.7956ZM3 13.5C2.72386 13.5 2.5 13.7239 2.5 14C2.5 14.2762 2.72386 14.5 3 14.5H13C13.2761 14.5 13.5 14.2762 13.5 14C13.5 13.7239 13.2761 13.5 13 13.5H3Z" fill="#0C1F34"/>
</svg>
