<svg width="16" height="17" viewBox="0 0 16 17" fill="none" xmlns="http://www.w3.org/2000/svg">
<path fill-rule="evenodd" clip-rule="evenodd" d="M7.79645 2.57783C7.11393 2.91498 6.76762 3.83185 6.82607 5.14703C6.86124 5.93843 6.95159 6.44429 7.24205 7.47526C7.42157 8.11255 7.43673 8.21538 7.37834 8.40083C7.29176 8.67596 7.09065 8.79747 6.72754 8.79419C6.35176 8.79076 5.99801 8.60188 5.81707 8.30813C5.61405 7.97839 5.52933 7.33343 5.615 6.76953C5.70705 6.16357 5.70107 6.05157 5.57002 5.92685C5.37523 5.74145 5.13066 5.78641 4.7675 6.07437C3.34878 7.19911 2.68412 9.16889 3.1448 10.8832C3.77411 13.225 6.15662 14.7822 8.61313 14.4572C9.70729 14.3124 10.6621 13.8859 11.4142 13.206C12.4341 12.284 12.9358 11.2488 12.9942 9.94619C13.057 8.54679 12.609 7.42993 11.5791 6.41833C11.105 5.9527 10.6504 5.62623 9.88197 5.19966C9.20311 4.82276 8.75647 4.43797 8.57802 4.07615C8.46957 3.85616 8.44567 3.71947 8.44522 3.31613C8.44454 2.73699 8.4256 2.67573 8.21514 2.57215C8.01763 2.47494 8.00444 2.47511 7.79645 2.57783ZM8.42346 5.28683C8.60563 5.45114 8.9449 5.6891 9.1774 5.81564C9.91782 6.21861 10.3464 6.50566 10.7542 6.87177C11.9895 7.98085 12.4055 9.53651 11.8635 11.0199C11.6684 11.5538 11.4157 11.9398 10.9588 12.4021C9.8942 13.4791 8.3122 13.8799 6.79817 13.4562C5.839 13.1878 4.85492 12.4189 4.40118 11.5832C4.14674 11.1146 3.96429 10.5404 3.90691 10.0279C3.83296 9.36673 4.07403 8.38087 4.46115 7.76167L4.63876 7.47757L4.70392 7.87866C4.86202 8.85165 5.4582 9.4693 6.39893 9.63484C6.92437 9.72727 7.50792 9.57004 7.86702 9.23933C8.25713 8.88013 8.38158 8.16254 8.15877 7.55798C7.89408 6.8397 7.76264 6.13992 7.73152 5.28312L7.70137 4.45165L7.89684 4.71987C8.00433 4.86739 8.24135 5.12252 8.42346 5.28683Z" fill="#0C1F34"/>
</svg>
