<svg width="16" height="17" viewBox="0 0 16 17" fill="none" xmlns="http://www.w3.org/2000/svg">
<g clip-path="url(#clip0_917_1439)">
<path fill-rule="evenodd" clip-rule="evenodd" d="M11.1856 4.27385C11.4341 4.07896 11.6794 3.94566 11.8885 3.87597C12.0362 3.82673 12.1462 3.81571 12.2166 3.82158C12.2503 3.82439 12.2702 3.83064 12.28 3.83477C12.2849 3.8368 12.2876 3.83844 12.2889 3.83927C12.2901 3.84007 12.2906 3.8406 12.291 3.84097C12.2914 3.84135 12.2919 3.84192 12.2927 3.84312C12.2935 3.84438 12.2952 3.8471 12.2972 3.85195C12.3013 3.86179 12.3076 3.88171 12.3104 3.91538C12.3163 3.98575 12.3053 4.09577 12.256 4.24352C12.1798 4.47219 12.0274 4.74424 11.8016 5.01651C11.737 4.67709 11.5 4.39786 11.1856 4.27385ZM9.05543 5.30848C9.0143 5.37818 8.97489 5.44763 8.9375 5.51641C8.77562 5.81424 8.63701 6.12626 8.56916 6.40968C8.53527 6.55122 8.51305 6.70964 8.52781 6.86778C8.5428 7.02849 8.59995 7.22098 8.75548 7.37651L9.46259 6.6694C9.51537 6.72218 9.52312 6.77278 9.52353 6.77548L9.52348 6.77487C9.52252 6.76461 9.52231 6.72342 9.54168 6.64251C9.58034 6.48102 9.67324 6.25679 9.8161 5.99396C9.95296 5.74216 10.1221 5.47944 10.3002 5.23526L10.8191 5.20473L10.5831 9.21764C10.5687 9.46213 10.4651 9.69284 10.2919 9.86602L5.73625 14.4217C5.34572 14.8122 4.71256 14.8122 4.32203 14.4217L1.60217 11.7018C1.21165 11.3113 1.21165 10.6782 1.60217 10.2876L6.15785 5.73195C6.33103 5.55877 6.56174 5.45516 6.80623 5.44078L9.05543 5.30848ZM9.78853 4.26362C9.91657 4.10848 10.0453 3.96536 10.1697 3.84097C10.6032 3.40746 11.1003 3.08462 11.5722 2.92729C12.0125 2.78054 12.5968 2.73254 12.9981 3.13386C13.3994 3.53519 13.3515 4.11949 13.2047 4.55975C13.0474 5.03173 12.7245 5.52878 12.291 5.96229L11.7441 6.50917L11.5814 9.27636C11.5526 9.76534 11.3454 10.2268 10.999 10.5731L6.44335 15.1288C5.66231 15.9099 4.39597 15.9099 3.61493 15.1288L0.895065 12.4089C0.114017 11.6279 0.114017 10.3616 0.895066 9.58052L5.45074 5.02484C5.7971 4.67848 6.25853 4.47127 6.74751 4.44251L9.78853 4.26362Z" fill="#0C1F34"/>
</g>
<defs>
<clipPath id="clip0_917_1439">
<rect width="16" height="16" fill="white" transform="translate(0 0.5)"/>
</clipPath>
</defs>
</svg>
