<svg width="24" height="24" viewBox="0 0 24 24" fill="none" xmlns="http://www.w3.org/2000/svg">
<circle cx="10.878" cy="9.87891" r="6" transform="rotate(-45 10.878 9.87891)" stroke="#0C1F34" stroke-width="1.5"/>
<mask id="path-2-inside-1_917_1481" fill="white">
<path d="M16.2148 16.2773L17.2755 15.2167L19.893 17.8342C20.1859 18.1271 20.1859 18.6019 19.893 18.8948C19.6001 19.1877 19.1252 19.1877 18.8323 18.8948L16.2148 16.2773Z"/>
</mask>
<path d="M16.2148 16.2773L15.5077 15.5702L14.8006 16.2773L15.5077 16.9845L16.2148 16.2773ZM17.2755 15.2167L17.9826 14.5096L17.2755 13.8025L16.5684 14.5096L17.2755 15.2167ZM16.922 16.9845L17.9826 15.9238L16.5684 14.5096L15.5077 15.5702L16.922 16.9845ZM16.5684 15.9238L19.1859 18.5413L20.6001 17.1271L17.9826 14.5096L16.5684 15.9238ZM19.5394 18.1877L16.922 15.5702L15.5077 16.9845L18.1252 19.6019L19.5394 18.1877ZM19.1859 18.1877C19.2835 18.0901 19.4418 18.0901 19.5394 18.1877L18.1252 19.6019C18.8086 20.2853 19.9167 20.2853 20.6001 19.6019L19.1859 18.1877ZM19.1859 18.5413C19.0882 18.4436 19.0882 18.2853 19.1859 18.1877L20.6001 19.6019C21.2835 18.9185 21.2835 17.8105 20.6001 17.1271L19.1859 18.5413Z" fill="#0C1F34" mask="url(#path-2-inside-1_917_1481)"/>
</svg>
