<svg width="16" height="17" viewBox="0 0 16 17" fill="none" xmlns="http://www.w3.org/2000/svg">
<path fill-rule="evenodd" clip-rule="evenodd" d="M11.3322 14.4321C11.1988 14.4321 11.0655 14.4321 10.9322 14.3654L8.19883 12.8988C7.99883 12.8321 7.93216 12.8988 7.93216 12.8988L5.13216 14.3654C4.73216 14.4988 4.39883 14.4321 4.13216 14.2321C3.86549 14.0321 3.73216 13.6988 3.79883 13.3654L4.33216 10.2988V10.2321L2.06549 8.03211C1.79883 7.76544 1.73216 7.36544 1.86549 7.0321C1.99883 6.69876 2.26549 6.4321 2.66549 6.36543L5.79883 5.96543L7.19883 3.09876C7.33216 2.8321 7.59883 2.56543 7.93216 2.56543C8.33216 2.56543 8.6655 2.69876 8.8655 3.0321L10.2655 5.96543L13.3988 6.4321C13.7322 6.49876 13.9988 6.69876 14.1322 7.0321C14.2655 7.36544 14.1988 7.69878 13.9988 7.96544L13.9322 8.03211L11.6655 10.2988L12.1988 13.3654C12.2655 13.6988 12.1322 14.0321 11.8655 14.2321C11.7322 14.3654 11.5322 14.4321 11.3322 14.4321ZM7.93216 11.8988C8.13216 11.8988 8.2655 11.8988 8.4655 11.9654L8.59883 12.0321L11.2655 13.4321L10.7322 10.3654C10.7322 10.2321 10.7322 9.76544 11.0655 9.56544L13.1988 7.43211L9.93216 6.96543C9.79883 6.89876 9.53216 6.76543 9.39883 6.49876L8.0655 3.69876L6.73216 6.49876C6.53216 6.6321 6.33216 6.89876 5.93216 6.96543L2.86549 7.36544L5.0655 9.56544C5.33216 9.83211 5.33216 10.1654 5.33216 10.2988V10.3654L4.79883 13.3654L7.4655 11.9654C7.59883 11.8988 7.79883 11.8988 7.93216 11.8988Z" fill="#0C1F34"/>
</svg>
