<svg width="16" height="17" viewBox="0 0 16 17" fill="none" xmlns="http://www.w3.org/2000/svg">
<path d="M4.88939 14.704H3.02802C2.69891 14.704 2.38328 14.5733 2.15056 14.3406C1.91785 14.1079 1.78711 13.7922 1.78711 13.4631V9.11994C1.78711 8.79083 1.91785 8.4752 2.15056 8.24248C2.38328 8.00977 2.69891 7.87903 3.02802 7.87903H4.88939M9.23258 6.63811V4.15629C9.23258 3.66262 9.03647 3.18918 8.6874 2.8401C8.33833 2.49103 7.86488 2.29492 7.37121 2.29492L4.88939 7.87903V14.704H11.8881C12.1874 14.7074 12.4778 14.6025 12.7058 14.4087C12.9339 14.2149 13.0842 13.9452 13.129 13.6493L13.9853 8.06516C14.0123 7.88731 14.0003 7.70572 13.9501 7.53297C13.9 7.36021 13.8129 7.20043 13.6948 7.06469C13.5768 6.92894 13.4306 6.82049 13.2665 6.74683C13.1024 6.67317 12.9242 6.63608 12.7444 6.63811H9.23258Z" stroke="#0C1F34" stroke-linecap="round" stroke-linejoin="round"/>
</svg>
