<svg width="26" height="24" viewBox="0 0 26 24" fill="none" xmlns="http://www.w3.org/2000/svg">
<path fill-rule="evenodd" clip-rule="evenodd" d="M0 11.9999C0 21.8819 1.059 23.9998 6.00003 23.9998C10.941 23.9998 12.0001 21.8819 12.0001 11.9999C12.0001 2.11799 10.941 0 6.00003 0C1.059 0 0 2.11799 0 11.9999ZM7 17.9999C7 18.5522 6.55228 18.9999 6 18.9999C5.44771 18.9999 4.99999 18.5522 4.99999 17.9999C4.99999 17.4476 5.44771 16.9999 6 16.9999C6.55228 16.9999 7 17.4476 7 17.9999Z" fill="url(#paint0_linear_632_15967)"/>
<path d="M14.0717 19.6226C13.6712 19.9599 13.0635 19.5518 13.1467 19.0328C13.4302 17.265 13.5 14.9561 13.5 11.9999C13.5 8.76646 13.4165 6.30748 13.0612 4.48383C13.0227 4.28642 13.0912 4.08011 13.2437 3.95019C17.4479 0.369 19.4364 0.466804 22.2122 3.24257C25.706 6.73636 24.9572 8.98282 17.9695 15.9704C16.4722 17.4677 15.1926 18.6786 14.0717 19.6226Z" fill="url(#paint1_linear_632_15967)"/>
<path d="M13.0078 23.9961C12.4945 23.9919 12.2758 23.3279 12.6707 22.9978C14.3006 21.6353 16.2344 19.8011 18.5953 17.4402C20.2269 15.8087 21.6069 14.3811 22.7535 13.1169C22.9007 12.9546 23.1314 12.894 23.3332 12.9776C25.397 13.8324 26 15.3636 26 18C26 22.941 23.882 24 13.9999 24C13.6601 24 13.3295 23.9987 13.0078 23.9961Z" fill="url(#paint2_linear_632_15967)"/>
<defs>
<linearGradient id="paint0_linear_632_15967" x1="2.70833" y1="2.5" x2="22.5301" y2="25.5841" gradientUnits="userSpaceOnUse">
<stop stop-color="#DF3639"/>
<stop offset="1" stop-color="#EB7E80"/>
</linearGradient>
<linearGradient id="paint1_linear_632_15967" x1="2.70833" y1="2.5" x2="22.5301" y2="25.5841" gradientUnits="userSpaceOnUse">
<stop stop-color="#DF3639"/>
<stop offset="1" stop-color="#EB7E80"/>
</linearGradient>
<linearGradient id="paint2_linear_632_15967" x1="2.70833" y1="2.5" x2="22.5301" y2="25.5841" gradientUnits="userSpaceOnUse">
<stop stop-color="#DF3639"/>
<stop offset="1" stop-color="#EB7E80"/>
</linearGradient>
</defs>
</svg>
