<svg width="24" height="24" viewBox="0 0 24 24" fill="none" xmlns="http://www.w3.org/2000/svg">
<path fill-rule="evenodd" clip-rule="evenodd" d="M12 24C2.118 24 0 21.882 0 12C0 2.118 2.118 0 12 0C21.882 0 24 2.118 24 12C24 21.882 21.882 24 12 24ZM11 6C11 5.44769 11.4478 5 12 5C12.5522 5 13 5.44769 13 6V11H18C18.5522 11 19 11.4477 19 12C19 12.5523 18.5522 13 18 13H12C11.4478 13 11 12.5523 11 12V6Z" fill="url(#paint0_linear_1086_35)"/>
<defs>
<linearGradient id="paint0_linear_1086_35" x1="2.5" y1="2.5" x2="22.5" y2="24" gradientUnits="userSpaceOnUse">
<stop stop-color="#DF3639"/>
<stop offset="1" stop-color="#EB7E80"/>
</linearGradient>
</defs>
</svg>
