<svg width="24" height="24" viewBox="0 0 24 24" fill="none" xmlns="http://www.w3.org/2000/svg">
<path fill-rule="evenodd" clip-rule="evenodd" d="M1.57886 10.7727C1.78654 10.8171 2.03007 10.8171 2.51714 10.8171C3.17338 10.8171 3.70537 11.4689 3.70537 12.2729C3.70537 13.0769 3.17338 13.7287 2.51714 13.7287C2.03987 13.7287 1.80123 13.7287 1.59458 13.7727C0.811143 13.9396 0.167089 14.613 0.0362485 15.4021C0.00173491 15.6102 0.0117306 15.8264 0.0317221 16.2588C0.0952123 17.6321 0.236889 18.6136 0.553036 19.4616C1.1863 21.1602 2.10003 22.2241 3.48642 23C4.7406 23.7019 6.55061 24 9.77466 24H14.2253C17.4494 24 19.2594 23.7019 20.5136 23C21.9 22.2241 22.8137 21.1602 23.447 19.4616C23.7631 18.6136 23.9048 17.6321 23.9683 16.2588C23.9883 15.8264 23.9983 15.6102 23.9638 15.4021C23.8329 14.613 23.1889 13.9396 22.4054 13.7728C22.1988 13.7287 21.9601 13.7287 21.4829 13.7287C20.8266 13.7287 20.2946 13.0769 20.2946 12.2729C20.2946 11.4689 20.8266 10.8171 21.4829 10.8171C21.9699 10.8171 22.2135 10.8171 22.4211 10.7727C23.1988 10.6061 23.8286 9.95778 23.9716 9.17669C24.0098 8.96808 24.0028 8.74023 23.9889 8.28452C23.938 6.61962 23.8033 5.49417 23.447 4.53836C22.8137 2.83978 21.9 1.77586 20.5136 1C19.2594 0.298132 17.4494 0 14.2253 0H9.77466C6.55061 0 4.7406 0.298132 3.48642 1C2.10003 1.77586 1.1863 2.83978 0.553036 4.53836C0.196692 5.49417 0.0620053 6.61962 0.0110984 8.28454C-0.00283493 8.74023 -0.0098016 8.96807 0.0283821 9.17668C0.171356 9.95778 0.801241 10.6062 1.57886 10.7727ZM8.30012 14.2164C7.89144 14.6244 7.89144 15.286 8.30012 15.694C8.7088 16.102 9.3714 16.102 9.78007 15.694L15.6999 9.78361C16.1086 9.37559 16.1086 8.71405 15.6999 8.30602C15.2912 7.89799 14.6286 7.89799 14.2199 8.30602L8.30012 14.2164ZM8.99521 11C8.44204 11 7.99361 10.5523 7.99361 10V9C7.99361 8.44772 8.44204 8 8.99521 8C9.54838 8 9.99681 8.44771 9.99681 9V10C9.99681 10.5523 9.54838 11 8.99521 11ZM14.0032 15C14.0032 15.5523 14.4516 16 15.0048 16C15.558 16 16.0064 15.5523 16.0064 15V14C16.0064 13.4477 15.558 13 15.0048 13C14.4516 13 14.0032 13.4477 14.0032 14V15Z" fill="url(#paint0_linear_1086_387)"/>
<defs>
<linearGradient id="paint0_linear_1086_387" x1="2.5" y1="2.5" x2="22.5" y2="24" gradientUnits="userSpaceOnUse">
<stop stop-color="#DF3639"/>
<stop offset="1" stop-color="#EB7E80"/>
</linearGradient>
</defs>
</svg>
