<svg width="16" height="16" viewBox="0 0 16 16" fill="none" xmlns="http://www.w3.org/2000/svg">
<path fill-rule="evenodd" clip-rule="evenodd" d="M7.79645 2.07783C7.11393 2.41498 6.76762 3.33185 6.82607 4.64703C6.86124 5.43843 6.95159 5.94429 7.24205 6.97526C7.42157 7.61255 7.43673 7.71538 7.37834 7.90083C7.29176 8.17596 7.09065 8.29747 6.72754 8.29419C6.35176 8.29076 5.99801 8.10188 5.81707 7.80813C5.61405 7.47839 5.52933 6.83343 5.615 6.26953C5.70705 5.66357 5.70107 5.55157 5.57002 5.42685C5.37523 5.24145 5.13066 5.28641 4.7675 5.57437C3.34878 6.69911 2.68412 8.66889 3.1448 10.3832C3.77411 12.725 6.15662 14.2822 8.61313 13.9572C9.70729 13.8124 10.6621 13.3859 11.4142 12.706C12.4341 11.784 12.9358 10.7488 12.9942 9.44619C13.057 8.04679 12.609 6.92993 11.5791 5.91833C11.105 5.4527 10.6504 5.12623 9.88197 4.69966C9.20311 4.32276 8.75647 3.93797 8.57802 3.57615C8.46957 3.35616 8.44567 3.21947 8.44522 2.81613C8.44454 2.23699 8.4256 2.17573 8.21514 2.07215C8.01763 1.97494 8.00444 1.97511 7.79645 2.07783ZM8.42346 4.78683C8.60563 4.95114 8.9449 5.1891 9.1774 5.31564C9.91782 5.71861 10.3464 6.00566 10.7542 6.37177C11.9895 7.48085 12.4055 9.03651 11.8635 10.5199C11.6684 11.0538 11.4157 11.4398 10.9588 11.9021C9.8942 12.9791 8.3122 13.3799 6.79817 12.9562C5.839 12.6878 4.85492 11.9189 4.40118 11.0832C4.14674 10.6146 3.96429 10.0404 3.90691 9.52789C3.83296 8.86673 4.07403 7.88087 4.46115 7.26167L4.63876 6.97757L4.70392 7.37866C4.86202 8.35165 5.4582 8.9693 6.39893 9.13484C6.92437 9.22727 7.50792 9.07004 7.86702 8.73933C8.25713 8.38013 8.38158 7.66254 8.15877 7.05798C7.89408 6.3397 7.76264 5.63992 7.73152 4.78312L7.70137 3.95165L7.89684 4.21987C8.00433 4.36739 8.24135 4.62252 8.42346 4.78683Z" fill="#FF7B1D"/>
</svg>
