<svg width="16" height="17" viewBox="0 0 16 17" fill="currentColor" xmlns="http://www.w3.org/2000/svg">
<path fill-rule="evenodd" clip-rule="evenodd" d="M5.83366 2.5C5.83366 2.22386 5.6098 2 5.33366 2C5.05752 2 4.83366 2.22386 4.83366 2.5V3.37297C3.32655 3.61422 2.16699 4.92723 2.16699 6.5V11.8333C2.16699 13.5679 3.51602 15 5.33366 15H10.667C12.4098 15 13.8337 13.5761 13.8337 11.8333V6.5C13.8337 4.92723 12.6741 3.61422 11.167 3.37297V2.5C11.167 2.22386 10.9431 2 10.667 2C10.3909 2 10.167 2.22386 10.167 2.5V3.33333H5.83366V2.5ZM12.8337 6.66667V6.5C12.8337 5.48137 12.1191 4.61969 11.167 4.39209V5.16667C11.167 5.44281 10.9431 5.66667 10.667 5.66667C10.3909 5.66667 10.167 5.44281 10.167 5.16667V4.33333H5.83366V5.16667C5.83366 5.44281 5.6098 5.66667 5.33366 5.66667C5.05752 5.66667 4.83366 5.44281 4.83366 5.16667V4.39209C3.88159 4.61969 3.16699 5.48137 3.16699 6.5V6.66667H12.8337ZM3.16699 7.66667H12.8337V11.8333C12.8337 13.0239 11.8575 14 10.667 14H5.33366C4.08463 14 3.16699 13.0321 3.16699 11.8333V7.66667Z" fill="currentColor"/>
</svg>
