<svg width="24" height="24" viewBox="0 0 24 24" fill="none" xmlns="http://www.w3.org/2000/svg">
<path d="M5.24715 17.5369C4.92227 17.8617 4.91299 18.428 5.24715 18.7528C5.58131 19.0777 6.13825 19.0777 6.46313 18.7528L12.0046 13.2113L17.5369 18.7528C17.871 19.0777 18.428 19.087 18.7528 18.7528C19.0777 18.4187 19.0777 17.8617 18.7528 17.5369L13.2113 11.9954L18.7528 6.46313C19.0777 6.12897 19.087 5.57203 18.7528 5.24715C18.4187 4.92227 17.871 4.92227 17.5369 5.24715L12.0046 10.7887L6.46313 5.24715C6.13825 4.92227 5.57203 4.91299 5.24715 5.24715C4.92227 5.58131 4.92227 6.13825 5.24715 6.45385L10.7887 11.9954L5.24715 17.5369Z" fill="#7E8593"/>
</svg>
