<svg width="16" height="16" viewBox="0 0 16 16" fill="none" xmlns="http://www.w3.org/2000/svg">
<path fill-rule="evenodd" clip-rule="evenodd" d="M10.3327 2.08496C10.6088 2.08496 10.8327 2.30881 10.8327 2.58496V4.08496H12.3327C12.6088 4.08496 12.8327 4.30881 12.8327 4.58496C12.8327 4.8611 12.6088 5.08496 12.3327 5.08496H10.8327V6.58496C10.8327 6.86107 10.6088 7.08494 10.3327 7.08494C10.0565 7.08494 9.83268 6.86107 9.83268 6.58496V5.08496H8.33268C8.05655 5.08496 7.83268 4.8611 7.83268 4.58496C7.83268 4.30881 8.05655 4.08496 8.33268 4.08496H9.83268V2.58496C9.83268 2.30881 10.0565 2.08496 10.3327 2.08496ZM4.99935 2.75163C3.98988 2.75163 3.16602 3.57548 3.16602 4.58496V12.7183C3.16602 13.6075 4.09006 14.2233 4.91408 13.7524L4.96462 13.7235L6.96395 11.8575C6.98635 11.8497 7.01235 11.8497 7.03475 11.8575L9.03408 13.7235L9.08462 13.7524C9.90862 14.2233 10.8327 13.6075 10.8327 12.7183V8.58494C10.8327 8.30881 10.6088 8.08494 10.3327 8.08494C10.0565 8.08494 9.83268 8.30881 9.83268 8.58494V12.7183C9.83268 12.8109 9.78995 12.8655 9.74768 12.8912C9.71602 12.9105 9.67348 12.9211 9.61968 12.9022L7.64402 11.0583L7.61002 11.0356C7.24208 10.7903 6.75662 10.7903 6.38866 11.0356L6.3547 11.0583L4.37901 12.9022C4.32525 12.9211 4.28269 12.9105 4.25099 12.8912C4.20876 12.8655 4.16602 12.8109 4.16602 12.7183V4.58496C4.16602 4.12777 4.54216 3.75163 4.99935 3.75163H6.99935C7.27548 3.75163 7.49935 3.52777 7.49935 3.25163C7.49935 2.97548 7.27548 2.75163 6.99935 2.75163H4.99935Z" fill="#56BE92"/>
</svg>
